<svg width="358" height="117" viewBox="0 0 358 117" fill="none" xmlns="http://www.w3.org/2000/svg"><path fill-rule="evenodd" clip-rule="evenodd" d="M77.01 47.397c-.055-.342-.135-.61-.243-.808-.108-.2-.243-.348-.405-.448-.16-.098-.36-.16-.593-.188-.235-.026-.513-.04-.837-.04h-5.285c-.306 0-.482.03-.526.094-.045.063-.067.24-.067.525v6.176h5.15c.287 0 .54-.013.755-.042.217-.026.39-.084.526-.174.135-.09.243-.226.324-.405.08-.18.14-.423.175-.73h.35v4.072h-.35c-.054-.628-.212-1.02-.47-1.173-.262-.152-.698-.23-1.31-.23h-5.178l.028 7.255c0 .305.013.544.04.715.027.17.085.3.175.39.09.09.22.148.392.176.17.027.408.04.713.04v.27h-4.934v-.27c.288 0 .517-.013.69-.04.17-.028.3-.085.39-.176.09-.09.148-.22.175-.39.027-.17.04-.41.04-.715V46.21c0-.287-.013-.522-.04-.7-.027-.18-.08-.316-.162-.405-.08-.09-.207-.15-.377-.176-.172-.028-.4-.04-.69-.04v-.27h11.895l.028 2.777h-.378zM83.326 56.022c-.414.108-.85.234-1.308.378-.458.144-.885.337-1.28.58-.397.243-.72.54-.972.89s-.378.787-.378 1.307c0 .612.14 1.098.42 1.456.276.36.624.608 1.037.74.413.137.863.168 1.35.097.483-.072.933-.23 1.346-.472.415-.243.76-.563 1.04-.957.278-.395.418-.853.418-1.374V55.59l-1.672.432zm4.773 6.095c-.47.288-.886.498-1.255.633-.368.136-.678.158-.93.068s-.45-.296-.593-.62c-.145-.324-.225-.8-.243-1.43-.523.647-1.133 1.182-1.835 1.605-.702.422-1.474.634-2.32.634-.503 0-.97-.076-1.402-.23-.432-.152-.81-.376-1.132-.674-.323-.296-.58-.65-.767-1.065-.19-.413-.284-.88-.284-1.402 0-.54.098-1.012.296-1.416.198-.404.46-.755.782-1.053.323-.296.7-.556 1.132-.78.43-.225.882-.436 1.35-.633.772-.343 1.482-.573 2.13-.69.647-.116 1.302-.283 1.968-.498v-1.32c0-.45-.1-.846-.297-1.188-.197-.342-.453-.62-.767-.836-.315-.216-.675-.378-1.08-.486-.404-.107-.804-.16-1.2-.16-.215 0-.45.04-.7.12-.252.08-.504.184-.755.31-.252.126-.495.266-.728.417-.234.154-.44.293-.62.42l-.244-.163c.18-.197.36-.382.54-.553.18-.17.368-.327.566-.472.468-.358.94-.63 1.416-.81.477-.178 1.002-.27 1.578-.27 1.365 0 2.404.344 3.114 1.026.71.686 1.065 1.72 1.065 3.103v6.606c0 .09.005.226.014.404.008.18.03.37.067.567.035.2.09.37.16.513.073.145.172.216.298.216.108 0 .23-.027.364-.082.133-.054.246-.126.336-.215l-.027.404zM96.964 62.995c-.953 0-1.788-.174-2.507-.526-.72-.352-1.317-.822-1.793-1.416-.477-.593-.837-1.285-1.08-2.077-.242-.79-.364-1.626-.364-2.507 0-.917.14-1.798.418-2.644.28-.845.733-1.608 1.362-2.292.43-.448.926-.83 1.483-1.146.558-.314 1.147-.54 1.767-.674.62-.134 1.245-.17 1.874-.11.63.066 1.232.24 1.807.527.163.092.342.24.54.448.198.206.35.42.46.647.106.224.142.44.106.647-.035.206-.206.363-.512.472-.234.07-.4.026-.5-.136-.098-.16-.224-.36-.376-.593-.153-.233-.387-.45-.702-.647-.314-.198-.795-.298-1.442-.298-.755 0-1.407.146-1.956.434-.548.287-1 .674-1.36 1.16-.36.483-.63 1.042-.81 1.67-.18.63-.27 1.286-.27 1.97 0 .683.098 1.36.297 2.034.197.675.484 1.282.863 1.822.378.54.85.975 1.415 1.308.567.333 1.228.498 1.983.498.287 0 .606-.037.957-.107.35-.073.696-.18 1.038-.325.342-.144.658-.323.945-.54.287-.216.504-.458.648-.727l.188.484c-.988 1.763-2.48 2.643-4.476 2.643zM112.395 63.512l-.243-.055-.026-2.345c-.522.81-1.102 1.438-1.74 1.887-.638.45-1.452.673-2.44.673-1.313 0-2.288-.4-2.927-1.2-.64-.8-.957-1.82-.957-3.06v-7.687c0-.413-.068-.673-.203-.78-.135-.108-.382-.163-.74-.163v-.215h2.938l-.054 8.576c0 .754.144 1.366.43 1.833.29.467.657.8 1.107.997.45.2.93.27 1.445.217.51-.053.992-.216 1.442-.485.448-.27.822-.644 1.12-1.12.295-.476.444-1.038.444-1.684v-7.174c0-.448-.093-.718-.282-.808-.19-.09-.472-.135-.85-.135v-.215h3.128l-.054 11.3c0 .358.068.574.202.646.135.07.355.108.66.108v.215l-2.4.675zM118.018 63.122v-.216c.485 0 .804-.058.957-.176.154-.117.23-.435.23-.955V45.647c0-.27-.018-.468-.054-.593-.035-.127-.103-.203-.202-.23-.098-.026-.225-.026-.377 0-.152.027-.345.04-.578.04V44.3c.125-.038.34-.1.646-.19s.625-.176.958-.256c.332-.08.647-.144.944-.19.296-.044.498-.05.607-.013v18.206c0 .393.117.668.35.822.234.153.557.228.97.228v.216h-4.45zM131.836 62.616c-.216.153-.445.283-.688.392-.242.106-.495.187-.755.242-.26.053-.498.08-.714.08-.576 0-1.04-.1-1.39-.296-.352-.198-.625-.463-.822-.796-.2-.333-.334-.718-.405-1.16-.072-.44-.108-.903-.108-1.388v-8.765h-2.023v-.565l1.942-.135c.305-.504.525-1.053.66-1.646.135-.594.31-1.16.526-1.7.072-.018.153-.054.243-.108s.18-.098.27-.134c.09-.036.166-.045.23-.028.062.02.093.08.093.19v3.425h2.94v.7h-2.94v8.765c0 .252.023.526.068.822.044.297.126.57.243.823.116.252.277.463.485.634.207.17.47.255.796.255.287 0 .566-.03.836-.095.27-.062.53-.175.78-.336l.217.297c-.106.198-.27.373-.484.526zM140.834 56.022c-.413.108-.848.234-1.308.378-.458.144-.885.337-1.28.58-.396.243-.72.54-.97.89-.253.35-.38.787-.38 1.307 0 .612.14 1.098.42 1.456.278.36.624.608 1.038.74.413.137.862.168 1.348.097.486-.072.934-.23 1.348-.472.414-.243.76-.563 1.04-.957.276-.395.416-.853.416-1.374V55.59l-1.672.432zm4.774 6.095c-.468.288-.886.498-1.255.633-.368.136-.678.158-.93.068s-.45-.296-.593-.62c-.145-.324-.225-.8-.243-1.43-.52.647-1.132 1.182-1.834 1.605-.7.422-1.473.634-2.318.634-.504 0-.97-.076-1.403-.23-.432-.152-.81-.376-1.133-.674-.325-.296-.58-.65-.77-1.065-.187-.413-.283-.88-.283-1.402 0-.54.1-1.012.298-1.416.197-.404.458-.755.78-1.053.324-.296.702-.556 1.135-.78.43-.225.88-.436 1.347-.633.773-.343 1.483-.573 2.13-.69.648-.116 1.304-.283 1.97-.498v-1.32c0-.45-.1-.846-.297-1.188-.2-.342-.455-.62-.77-.836-.313-.216-.673-.378-1.078-.486-.404-.107-.805-.16-1.2-.16-.216 0-.45.04-.7.12-.252.08-.504.184-.756.31s-.495.266-.728.417c-.234.154-.44.293-.62.42l-.243-.163c.18-.197.36-.382.54-.553.178-.17.368-.327.565-.472.468-.358.94-.63 1.416-.81.477-.178 1.003-.27 1.58-.27 1.364 0 2.402.344 3.113 1.026.71.686 1.064 1.72 1.064 3.103v6.606c0 .09.005.226.014.404.01.18.03.37.067.567.036.2.09.37.162.513.072.145.17.216.296.216.108 0 .23-.027.364-.082.135-.054.247-.126.338-.215l-.027.404zM157.87 55.007c0-.934-.175-1.73-.525-2.387-.35-.655-.792-1.146-1.322-1.47-.53-.322-1.1-.475-1.712-.458-.61.02-1.18.217-1.71.594-.532.377-.972.957-1.323 1.74-.35.78-.525 1.766-.525 2.952 0 1.277.175 2.33.525 3.155.35.828.79 1.452 1.322 1.875.53.423 1.1.66 1.71.713.612.056 1.183-.047 1.713-.31.53-.26.97-.663 1.322-1.212.35-.548.526-1.217.526-2.008v-3.183zm.027 7.955v-1.968c-.898 1.403-2.148 2.103-3.748 2.103-.97 0-1.798-.175-2.48-.526-.684-.35-1.242-.82-1.673-1.415-.432-.592-.752-1.285-.958-2.076-.208-.79-.31-1.618-.31-2.483 0-.86.11-1.707.336-2.534.225-.826.57-1.564 1.038-2.21.467-.648 1.056-1.17 1.767-1.565.71-.395 1.542-.594 2.495-.594 1.51 0 2.688.62 3.532 1.86v-6.067c0-.143-.005-.31-.012-.498-.01-.19-.113-.302-.31-.34-.11-.017-.217-.02-.324-.012-.107.01-.225-.005-.35-.04v-.27c.125-.036.346-.094.66-.174.315-.082.643-.162.985-.243.34-.08.772-.175 1.295-.283v17.636c0 .36.094.568.282.62.19.055.436.072.742.055v.216l-2.967.808zM179.684 55.007c0-.934-.174-1.73-.525-2.387-.352-.655-.794-1.146-1.323-1.47-.53-.322-1.102-.475-1.712-.458-.61.02-1.182.217-1.713.594-.53.377-.97.957-1.32 1.74-.35.78-.527 1.766-.527 2.952 0 1.277.176 2.33.526 3.155.352.828.792 1.452 1.322 1.875.53.423 1.102.66 1.713.713.61.056 1.183-.047 1.712-.31.53-.26.97-.663 1.322-1.212.35-.548.524-1.217.524-2.008v-3.183zm.028 7.955v-1.968c-.9 1.403-2.15 2.103-3.75 2.103-.97 0-1.797-.175-2.48-.526-.683-.35-1.24-.82-1.67-1.415-.434-.592-.753-1.285-.96-2.076-.207-.79-.31-1.618-.31-2.483 0-.86.113-1.707.337-2.534.225-.826.57-1.564 1.038-2.21.468-.648 1.056-1.17 1.767-1.565.71-.395 1.54-.594 2.494-.594 1.508 0 2.686.62 3.532 1.86v-6.067c0-.143-.005-.31-.014-.498-.01-.19-.113-.302-.31-.34-.108-.017-.215-.02-.323-.012-.11.01-.226-.005-.35-.04v-.27c.124-.036.345-.094.66-.174.313-.082.64-.162.983-.243.343-.08.773-.175 1.295-.283v17.636c0 .36.095.568.283.62.19.055.436.072.742.055v.216l-2.966.808zM193.52 53.218c-.118-.45-.29-.86-.514-1.227-.225-.367-.517-.664-.876-.89-.36-.224-.81-.337-1.35-.337-.574 0-1.068.104-1.482.312-.413.206-.763.484-1.05.835-.29.35-.518.755-.69 1.213-.17.458-.292.94-.363 1.443h6.553c-.037-.45-.113-.9-.23-1.348zm-6.38 2.454c.018.7.113 1.39.284 2.064.17.673.43 1.28.782 1.82.35.538.81.97 1.376 1.293.566.323 1.253.486 2.062.486.342 0 .706-.03 1.093-.082.386-.053.76-.14 1.12-.256.358-.116.695-.28 1.01-.485.315-.207.57-.472.77-.795l.27.404c-.505.953-1.21 1.668-2.118 2.144-.91.475-1.894.714-2.955.714-.952 0-1.77-.17-2.454-.513-.682-.34-1.243-.804-1.684-1.388-.44-.585-.764-1.27-.97-2.05-.208-.783-.31-1.606-.31-2.468 0-.863.11-1.712.336-2.548.224-.838.57-1.582 1.04-2.24.466-.655 1.055-1.185 1.764-1.59.71-.404 1.55-.608 2.523-.608.878 0 1.62.163 2.223.486.602.324 1.096.756 1.483 1.295.386.54.678 1.16.877 1.86.197.702.333 1.43.404 2.184l.027.272h-8.953zM221.562 51.28c-.225-.98-.58-1.865-1.066-2.656-.484-.79-1.114-1.438-1.886-1.943-.774-.5-1.718-.752-2.832-.752-1.134 0-2.085.252-2.86.753-.772.506-1.4 1.153-1.887 1.944-.484.79-.835 1.672-1.05 2.643-.216.97-.324 1.933-.324 2.886 0 .952.108 1.92.323 2.898.215.982.566 1.862 1.05 2.644.487.78 1.116 1.42 1.89 1.916.773.493 1.724.74 2.858.74 1.114 0 2.063-.247 2.844-.74.783-.495 1.416-1.138 1.902-1.93.485-.79.836-1.67 1.052-2.642.215-.97.323-1.933.323-2.885 0-.935-.113-1.893-.338-2.873zm2.198 6.526c-.377 1.143-.93 2.144-1.66 3.008-.727.862-1.62 1.54-2.68 2.035-1.062.494-2.276.742-3.642.742-1.384 0-2.607-.248-3.668-.743-1.06-.495-1.955-1.17-2.683-2.023-.73-.853-1.277-1.856-1.645-3.007-.37-1.15-.553-2.374-.553-3.667 0-1.6.242-2.994.728-4.18.484-1.188 1.132-2.18 1.94-2.98.81-.8 1.727-1.398 2.75-1.794 1.026-.396 2.07-.59 3.13-.58 1.06.01 2.104.21 3.128.606 1.024.395 1.94.99 2.75 1.78.81.792 1.457 1.784 1.942 2.98.486 1.195.73 2.585.73 4.167 0 1.293-.19 2.512-.568 3.653zM236.2 55.007c0-.934-.173-1.73-.524-2.387-.35-.655-.792-1.146-1.32-1.47-.53-.322-1.104-.475-1.714-.458-.61.02-1.182.217-1.713.594-.53.377-.97.957-1.322 1.74-.35.78-.526 1.766-.526 2.952 0 1.277.176 2.33.526 3.155.35.828.79 1.452 1.32 1.875.532.423 1.103.66 1.714.713.61.056 1.183-.047 1.713-.31.53-.26.97-.663 1.32-1.212.352-.548.526-1.217.526-2.008v-3.183zm.03 7.955v-1.968c-.9 1.403-2.15 2.103-3.75 2.103-.97 0-1.798-.175-2.48-.526-.684-.35-1.24-.82-1.673-1.415-.43-.592-.75-1.285-.957-2.076-.207-.79-.31-1.618-.31-2.483 0-.86.112-1.707.336-2.534.226-.826.572-1.564 1.04-2.21.467-.648 1.055-1.17 1.765-1.565s1.542-.594 2.496-.594c1.51 0 2.687.62 3.533 1.86v-6.067c0-.143-.006-.31-.015-.498-.01-.19-.113-.302-.31-.34-.108-.017-.215-.02-.324-.012-.107.01-.224-.005-.35-.04v-.27c.126-.036.347-.094.662-.174.313-.082.64-.162.984-.243.342-.08.772-.175 1.294-.283v17.636c0 .36.095.568.283.62.19.055.436.072.742.055v.216l-2.966.808zM252.443 53.285c-.414-.836-.927-1.474-1.537-1.916-.61-.44-1.268-.68-1.97-.715-.7-.036-1.347.148-1.94.552-.594.405-1.08 1.035-1.457 1.888-.378.855-.558 1.94-.54 3.25.018 1.222.238 2.25.66 3.087.423.837.94 1.47 1.55 1.902.612.432 1.268.66 1.97.69.7.025 1.35-.17 1.942-.582.594-.414 1.082-1.043 1.47-1.888.386-.844.56-1.914.526-3.21-.037-1.203-.26-2.224-.675-3.06zm1.847 6.796c-.602.997-1.362 1.744-2.28 2.238-.915.494-1.9.745-2.952.755-1.052.01-2.035-.233-2.952-.728-.917-.494-1.677-1.24-2.28-2.238-.602-.997-.902-2.252-.902-3.762 0-1.512.3-2.768.903-3.776.602-1.007 1.362-1.757 2.28-2.252.916-.494 1.895-.742 2.938-.742 1.06 0 2.05.252 2.966.755.918.505 1.678 1.26 2.28 2.267.602 1.006.904 2.256.904 3.748 0 1.493-.302 2.737-.904 3.736zM266.662 62.71v-.216c.467 0 .745-.072.836-.215.09-.145.135-.452.135-.918v-7.227c0-.413-.045-.81-.135-1.188-.09-.377-.238-.71-.444-.998-.208-.288-.473-.517-.797-.688-.323-.17-.71-.256-1.16-.256-.753 0-1.406.212-1.954.634-.55.423-.95.975-1.2 1.658-.037.073-.086.208-.15.405-.062.198-.093.333-.093.403v7.338c0 .304.01.556.027.753.018.2.206.297.566.297v.216h-3.45v-.216c.448 0 .714-.075.795-.228.08-.154.12-.454.12-.904V51.52c0-.29-.018-.482-.054-.58-.036-.1-.09-.154-.16-.163-.074-.01-.173 0-.298.027-.126.027-.278.014-.458-.04v-.27l2.318-.81.514.028v2.373c.52-.755 1.11-1.363 1.766-1.82.655-.46 1.47-.69 2.44-.69.665 0 1.235.123 1.712.366.477.244.864.57 1.16.985.297.414.517.89.66 1.43.145.54.217 1.115.217 1.726v7.364c0 .25.053.49.162.713.107.226.313.337.62.337v.216h-3.695zM280.565 62.616c-.216.153-.445.283-.688.392-.242.106-.495.187-.756.242-.26.053-.497.08-.713.08-.575 0-1.038-.1-1.39-.296-.35-.198-.623-.463-.82-.796-.2-.333-.334-.718-.405-1.16-.073-.44-.108-.903-.108-1.388v-8.765h-2.023v-.565l1.942-.135c.306-.504.526-1.053.662-1.646.134-.594.31-1.16.525-1.7.07-.018.152-.054.242-.108s.18-.098.27-.134c.09-.036.165-.045.23-.028.06.02.093.08.093.19v3.425h2.94v.7h-2.94v8.765c0 .252.023.526.068.822.044.297.124.57.242.823.116.252.278.463.485.634.207.17.472.255.797.255.287 0 .566-.03.835-.095.27-.062.53-.175.782-.336l.216.297c-.108.198-.27.373-.485.526zM293.097 53.285c-.415-.836-.927-1.474-1.538-1.916-.612-.44-1.268-.68-1.97-.715-.7-.036-1.348.148-1.94.552-.594.405-1.08 1.035-1.457 1.888-.378.855-.557 1.94-.54 3.25.018 1.222.24 2.25.662 3.087.42.837.938 1.47 1.55 1.902.61.432 1.267.66 1.968.69.702.025 1.35-.17 1.942-.582.594-.414 1.083-1.043 1.47-1.888.386-.844.56-1.914.526-3.21-.036-1.203-.26-2.224-.673-3.06zm1.846 6.796c-.602.997-1.36 1.744-2.278 2.238-.917.494-1.902.745-2.953.755-1.052.01-2.036-.233-2.953-.728-.918-.494-1.678-1.24-2.28-2.238-.602-.997-.904-2.252-.904-3.762 0-1.512.302-2.768.905-3.776.602-1.007 1.362-1.757 2.28-2.252.916-.494 1.896-.742 2.938-.742 1.06 0 2.05.252 2.967.755.917.505 1.676 1.26 2.278 2.267.603 1.006.904 2.256.904 3.748 0 1.493-.3 2.737-.904 3.736zM76.315 78.53c-.2 0-.353.056-.46.17-.106.112-.18.25-.22.41-.04.16-.06.332-.06.517v7.492c0 1.61-.442 2.842-1.328 3.695-.886.853-2.127 1.28-3.726 1.28-1.61 0-2.855-.434-3.734-1.3-.88-.866-1.32-2.105-1.32-3.716v-7.573c.002-.292-.03-.528-.1-.71-.065-.177-.27-.267-.617-.267h-.3v-.2h3.714v.2c-.213 0-.382.007-.51.02-.125.013-.225.053-.3.12-.07.067-.122.166-.148.298-.027.134-.04.314-.04.54v7.61c0 1.227.282 2.196.85 2.907.565.713 1.487 1.07 2.765 1.07 1.173 0 2.082-.333 2.728-1 .646-.665.97-1.578.97-2.737v-7.91c0-.2-.03-.365-.09-.5-.06-.132-.164-.235-.31-.31-.148-.072-.36-.108-.64-.108v-.2h3.176v.2h-.3zM90.95 78.62c-.148.06-.25.15-.31.27-.06.12-.094.272-.1.46-.008.186-.01.405-.01.657v11.946h-1.02L81.5 80.488v9.728c0 .253.003.47.01.65.006.18.04.33.1.448.06.12.163.208.31.26.146.053.353.08.62.08v.2h-3.218v-.2c.28 0 .493-.027.64-.08.146-.052.252-.136.32-.25.066-.114.103-.26.11-.44.006-.18.01-.4.01-.668V79.37l-.2-.43c-.054-.114-.114-.2-.18-.26-.066-.06-.15-.1-.25-.12-.1-.02-.25-.03-.45-.03v-.2h2.638c1.224 1.85 2.47 3.67 3.736 5.453 1.265 1.786 2.51 3.604 3.735 5.453v-9.23c0-.265-.003-.492-.01-.677-.006-.187-.04-.34-.1-.46-.06-.12-.166-.207-.32-.26-.152-.053-.368-.08-.648-.08v-.2h3.236v.2c-.28 0-.494.03-.64.09zM94.195 91.854v-.2c.226 0 .41-.006.55-.02.14-.013.25-.05.33-.11.08-.06.132-.156.158-.29.028-.132.04-.32.04-.558V79.508c0-.237-.012-.425-.04-.56-.026-.13-.08-.23-.16-.288-.08-.06-.19-.096-.33-.11-.14-.013-.322-.02-.548-.02v-.2h3.876v.2c-.226 0-.41.007-.55.02-.14.014-.248.05-.33.11-.08.06-.132.157-.158.29-.027.133-.04.32-.04.558v11.168c0 .24.013.426.04.558.026.134.08.23.16.29.08.06.19.097.33.11.14.014.322.02.55.02v.2h-3.877zM112.38 78.77c-.127.158-.238.352-.33.58l-4.895 12.643h-.82l-5.152-12.605c-.107-.252-.237-.456-.39-.608-.153-.154-.37-.237-.65-.25v-.2h3.537v.2c-.134 0-.26.003-.38.01-.12.006-.22.032-.3.08-.08.047-.13.117-.15.21-.02.092.004.218.07.378l4.075 10.268 3.756-9.828c.147-.372.18-.645.1-.82-.08-.17-.332-.272-.758-.298v-.2h2.876v.2c-.266 0-.463.08-.59.24zM123.135 91.854h-9.11v-.2c.413 0 .673-.057.78-.17.107-.112.16-.382.16-.808V79.508c0-.425-.053-.695-.16-.81-.107-.112-.367-.168-.78-.168v-.2h8.91l.02 2.058h-.28c-.067-.506-.223-.816-.47-.93-.246-.112-.602-.17-1.068-.17h-4.035c-.227 0-.357.025-.39.07-.033.048-.05.178-.05.39v4.574h4.055c.213 0 .4-.01.56-.03.16-.02.29-.06.39-.13.1-.065.176-.165.228-.3.054-.13.094-.31.12-.538h.26v3.017h-.26c-.026-.24-.066-.425-.12-.56-.052-.13-.13-.234-.23-.308-.098-.073-.225-.12-.38-.14-.15-.02-.34-.03-.568-.03h-4.054v5.213c0 .12.036.21.11.27.072.06.16.098.26.11.1.014.205.017.318.01.115-.007.21-.01.29-.01h3.297c.32 0 .596-.016.83-.05.232-.033.44-.103.628-.21.186-.106.353-.25.5-.43.146-.18.286-.42.42-.728h.32l-.5 2.377zM127.57 84.582h.957c.48 0 .95-.043 1.41-.13.458-.085.875-.24 1.248-.46.372-.218.672-.514.898-.887.227-.372.34-.84.34-1.398 0-.493-.093-.9-.28-1.22-.187-.32-.437-.57-.75-.748-.312-.18-.668-.304-1.068-.37-.4-.067-.805-.1-1.218-.1h-.4c-.133 0-.273.006-.42.02-.145.013-.282.046-.41.098-.125.054-.228.127-.308.22v4.974zm6.15 7.272c-.318-.706-.637-1.342-.958-1.908-.32-.565-.666-1.094-1.04-1.587-.372-.494-.777-.967-1.217-1.42-.44-.452-.938-.926-1.498-1.418l-1.438.02v5.134c0 .226.012.406.04.538.025.133.072.234.138.3.068.067.167.107.3.12.133.014.306.02.52.02v.2h-3.636v-.2c.2 0 .363-.01.49-.03.126-.02.222-.063.29-.13.065-.066.11-.163.128-.29.02-.125.03-.302.03-.528V79.508c0-.212-.01-.385-.03-.52-.02-.13-.063-.23-.13-.298-.066-.066-.162-.11-.29-.13-.125-.02-.29-.03-.488-.03v-.2h4.774c.586 0 1.15.064 1.688.19.54.128 1.015.33 1.428.61.412.28.742.645.99 1.098.245.452.37 1.012.37 1.678 0 .507-.095.95-.28 1.33-.188.377-.44.7-.76.957-.32.26-.686.47-1.1.63-.412.16-.844.273-1.297.34.386.318.7.592.938.818.24.228.45.443.63.65.18.206.356.42.53.64.172.22.378.475.618.767.268.335.52.71.76 1.13.24.42.463.812.67 1.18.206.366.396.675.57.928.172.254.338.38.498.38v.2h-2.237zM139.253 90.853c-.067.06-.1.142-.1.25h-.24l-.1-2.918.04-.06h.18c.24.573.563 1.032.97 1.38.405.345.834.594 1.287.75.453.15.913.214 1.38.188.465-.027.887-.14 1.268-.34.38-.2.685-.475.918-.83.233-.35.35-.768.35-1.247 0-.572-.157-1.052-.47-1.44-.313-.385-.703-.734-1.168-1.047-.467-.314-.976-.614-1.53-.9-.55-.287-1.06-.606-1.527-.96-.465-.35-.855-.766-1.167-1.238-.313-.473-.47-1.062-.47-1.767 0-.52.11-.983.33-1.39.22-.405.51-.755.87-1.05.358-.29.768-.514 1.227-.667.46-.153.93-.23 1.408-.23.28 0 .556.025.83.07.273.046.543.11.808.19.027.014.1.037.22.07l.39.11.39.11c.12.033.186.05.2.05.225-.027.352-.154.38-.38h.22c.05.493.102 1 .15 1.52.044.517.055 1.023.028 1.516h-.22c-.172-.505-.432-.925-.778-1.257-.347-.333-.73-.587-1.15-.76-.42-.173-.855-.26-1.308-.26-.44 0-.842.08-1.208.24-.367.16-.666.4-.9.718-.232.32-.35.713-.35 1.18 0 .36.098.676.29.948.194.273.424.523.69.75.347.28.712.54 1.1.78.385.238.778.464 1.178.678l-.14-.06c.438.227.862.474 1.268.74s.77.566 1.088.9c.32.332.573.708.76 1.128.186.42.28.903.28 1.448 0 .573-.128 1.083-.38 1.528-.253.447-.583.823-.99 1.128-.406.306-.862.54-1.366.7-.507.16-1.02.24-1.54.24-.558 0-1.092-.068-1.598-.2-.505-.133-1.025-.274-1.557-.42-.093.013-.174.05-.24.11zM148.73 91.854v-.2c.225 0 .408-.006.548-.02.14-.013.25-.05.33-.11.08-.06.133-.156.16-.29.027-.132.04-.32.04-.558V79.508c0-.237-.013-.425-.04-.56-.027-.13-.08-.23-.16-.288-.08-.06-.19-.096-.33-.11-.14-.013-.323-.02-.55-.02v-.2h3.877v.2c-.227 0-.41.007-.55.02-.14.014-.25.05-.33.11-.08.06-.133.157-.16.29-.026.133-.04.32-.04.558v11.168c0 .24.014.426.04.558.027.134.08.23.16.29.08.06.19.097.33.11.14.014.323.02.55.02v.2h-3.876zM158.347 90.415c0 .12.046.214.14.28.093.068.206.117.34.152.13.032.265.05.398.058.134.007.233.01.3.01.97 0 1.86-.11 2.657-.328.8-.22 1.478-.567 2.037-1.04.56-.473.99-1.078 1.297-1.818.307-.74.46-1.63.46-2.667 0-.986-.146-1.842-.44-2.567-.292-.727-.71-1.33-1.248-1.81-.54-.478-1.193-.834-1.958-1.068-.766-.233-1.622-.347-2.568-.347-.24 0-.485.02-.738.06-.254.04-.48.14-.68.298v10.787zm-2.678 1.24c.2 0 .365-.007.5-.02.132-.014.232-.054.3-.12.065-.067.112-.168.138-.3.027-.133.04-.313.04-.54V79.51c0-.226-.013-.405-.04-.54-.026-.132-.073-.23-.14-.298-.066-.066-.166-.106-.3-.12-.133-.012-.298-.02-.5-.02v-.2h4.637c1.104 0 2.113.136 3.025.41.912.274 1.695.69 2.348 1.248.652.56 1.16 1.266 1.518 2.118.36.852.54 1.857.54 3.017 0 .972-.154 1.88-.46 2.726-.307.845-.84 1.595-1.598 2.247-.772.666-1.638 1.124-2.598 1.377-.958.253-1.937.38-2.936.38h-4.475v-.2zM173.92 79.436l-2.637 6.512h5.274l-2.636-6.512zm3.536 11.566v-.2c.307 0 .533-.057.678-.17.147-.112.147-.336 0-.67l-1.237-3.034h-6.014l-1.117 2.796c-.148.346-.19.612-.13.798.06.188.303.28.73.28v.2h-2.798v-.2c.16-.012.296-.06.41-.14.112-.08.212-.172.3-.28.086-.105.16-.225.22-.358.058-.133.115-.266.168-.4l5.115-12.285h1.1l5.313 12.803c.147.36.432.58.86.66v.2h-3.597zM185.118 90.415c0 .12.046.214.14.28.093.068.206.117.34.152.132.032.265.05.398.058.134.007.233.01.3.01.972 0 1.86-.11 2.657-.328.8-.22 1.478-.567 2.038-1.04.56-.473.992-1.078 1.3-1.818.306-.74.46-1.63.46-2.667 0-.986-.148-1.842-.442-2.567-.292-.727-.708-1.33-1.248-1.81-.54-.478-1.19-.834-1.957-1.068-.766-.233-1.62-.347-2.566-.347-.24 0-.487.02-.74.06-.253.04-.48.14-.68.298v10.787zm-2.677 1.24c.2 0 .367-.007.5-.02.133-.014.233-.054.3-.12.066-.067.113-.168.14-.3.026-.133.04-.313.04-.54V79.51c0-.226-.014-.405-.04-.54-.027-.132-.074-.23-.14-.298-.067-.066-.167-.106-.3-.12-.133-.012-.3-.02-.5-.02v-.2h4.636c1.105 0 2.113.136 3.025.41.913.274 1.697.69 2.35 1.248.652.56 1.158 1.266 1.517 2.118.36.852.54 1.857.54 3.017 0 .972-.154 1.88-.46 2.726-.307.845-.838 1.595-1.598 2.247-.773.666-1.64 1.124-2.6 1.377-.956.253-1.936.38-2.935.38h-4.474v-.2zM204.948 90.415c0 .12.047.214.14.28.092.068.206.117.34.152.132.032.266.05.4.058.133.007.232.01.298.01.972 0 1.86-.11 2.658-.328.8-.22 1.478-.567 2.037-1.04.56-.473.993-1.078 1.3-1.818.305-.74.46-1.63.46-2.667 0-.986-.148-1.842-.44-2.567-.294-.727-.71-1.33-1.25-1.81-.54-.478-1.19-.834-1.957-1.068-.765-.233-1.62-.347-2.567-.347-.24 0-.486.02-.74.06-.252.04-.478.14-.678.298v10.787zm-2.677 1.24c.2 0 .367-.007.5-.02.134-.014.234-.054.3-.12.067-.067.113-.168.14-.3.027-.133.04-.313.04-.54V79.51c0-.226-.013-.405-.04-.54-.027-.132-.073-.23-.14-.298-.066-.066-.166-.106-.3-.12-.133-.012-.3-.02-.5-.02v-.2h4.636c1.105 0 2.114.136 3.026.41.912.274 1.694.69 2.348 1.248.652.56 1.16 1.266 1.518 2.118.36.852.54 1.857.54 3.017 0 .972-.155 1.88-.46 2.726-.307.845-.84 1.595-1.598 2.247-.774.666-1.64 1.124-2.598 1.377-.958.253-1.938.38-2.936.38h-4.475v-.2zM225.262 91.854h-9.11v-.2c.413 0 .673-.057.78-.17.107-.112.16-.382.16-.808V79.508c0-.425-.053-.695-.16-.81-.107-.112-.367-.168-.78-.168v-.2h8.91l.02 2.058h-.28c-.067-.506-.222-.816-.47-.93-.245-.112-.602-.17-1.068-.17h-4.035c-.228 0-.358.025-.39.07-.034.048-.05.178-.05.39v4.574h4.054c.214 0 .4-.01.56-.03.16-.02.29-.06.39-.13.1-.065.176-.165.23-.3.052-.13.092-.31.12-.538h.26v3.017h-.26c-.028-.24-.068-.425-.12-.56-.054-.13-.13-.234-.23-.308-.1-.073-.227-.12-.38-.14-.153-.02-.343-.03-.57-.03h-4.054v5.213c0 .12.036.21.11.27.072.06.16.098.26.11.1.014.206.017.318.01.114-.007.21-.01.29-.01h3.296c.32 0 .596-.016.83-.05.232-.033.442-.103.628-.21.186-.106.353-.25.5-.43.146-.18.286-.42.42-.728h.32l-.5 2.377zM242.188 90.992c-.765.246-1.57.37-2.407.37-1.064 0-2.013-.17-2.846-.51-.832-.34-1.542-.816-2.127-1.428-.586-.612-1.032-1.348-1.338-2.207-.308-.86-.462-1.808-.462-2.847 0-1 .16-1.928.48-2.786.32-.86.776-1.605 1.37-2.237.592-.633 1.304-1.126 2.136-1.478.832-.355 1.76-.53 2.787-.53.707 0 1.413.08 2.12.24.078.025.182.055.308.088.127.034.257.07.39.11.132.04.26.074.378.1.12.027.22.04.3.04.254 0 .413-.12.48-.36h.22v.74c0 .266-.004.54-.01.82-.007.278-.02.55-.04.818-.02.265-.056.5-.11.7-.466-.76-.985-1.337-1.56-1.73-.57-.392-1.316-.588-2.235-.588-.892 0-1.664.163-2.317.49-.652.326-1.188.76-1.608 1.307-.42.548-.732 1.186-.938 1.92-.207.73-.31 1.503-.31 2.315 0 .84.107 1.624.32 2.358.212.732.535 1.368.97 1.908.43.538.977.965 1.636 1.278.66.312 1.44.47 2.348.47.32 0 .666-.008 1.04-.02.372-.014.74-.05 1.108-.11.366-.06.715-.154 1.048-.28.334-.128.633-.303.9-.53l.08.34c-.64.573-1.343.98-2.108 1.228zM254.13 91.854v-.2c.21 0 .385-.01.52-.03.13-.02.23-.063.298-.13.066-.066.113-.163.14-.29.027-.125.04-.302.04-.528v-5.234h-6.533v5.234c0 .226.01.403.03.528.02.127.063.224.13.29.066.067.164.11.29.13.126.02.296.03.51.03v.2h-3.657v-.2c.213 0 .387-.01.52-.03.133-.02.233-.063.3-.13.067-.066.112-.163.14-.29.026-.125.04-.302.04-.528V79.508c0-.226-.014-.4-.04-.528-.028-.127-.073-.223-.14-.29-.067-.066-.167-.11-.3-.13-.133-.02-.307-.03-.52-.03v-.2h3.656v.2c-.213 0-.383.01-.51.03-.125.02-.223.064-.29.13-.066.067-.108.167-.13.3-.02.133-.03.306-.03.518v4.914h6.533v-4.914c0-.226-.012-.4-.04-.528-.026-.127-.073-.223-.14-.29-.066-.066-.166-.11-.298-.13-.135-.02-.31-.03-.52-.03v-.2h3.675v.2c-.214 0-.384.01-.51.03-.127.02-.227.064-.3.13-.073.067-.12.167-.14.3-.02.133-.03.306-.03.518v11.168c0 .226.01.403.03.528.02.127.067.224.14.29.073.067.173.11.3.13.126.02.296.03.51.03v.2h-3.676zM260.77 91.854v-.2c.228 0 .412-.006.55-.02.14-.013.25-.05.33-.11.08-.06.134-.156.16-.29.027-.132.04-.32.04-.558V79.508c0-.237-.013-.425-.04-.56-.026-.13-.08-.23-.16-.288-.08-.06-.19-.096-.33-.11-.138-.013-.322-.02-.55-.02v-.2h3.877v.2c-.227 0-.41.007-.55.02-.14.014-.25.05-.33.11-.08.06-.132.157-.16.29-.026.133-.04.32-.04.558v11.168c0 .24.014.426.04.558.028.134.08.23.16.29.08.06.19.097.33.11.14.014.323.02.55.02v.2h-3.876zM276.72 91.854h-9.008v-.2c.212 0 .383-.01.51-.03.125-.02.222-.063.29-.13.065-.066.11-.163.13-.29.02-.125.03-.302.03-.528V79.508c0-.212-.01-.385-.03-.52-.02-.13-.065-.23-.13-.298-.068-.066-.165-.11-.29-.13-.127-.02-.298-.03-.51-.03v-.2h3.675v.2c-.213 0-.386.01-.52.03-.132.02-.236.064-.308.13-.075.067-.125.163-.15.29-.03.127-.042.302-.042.528v11.007c0 .12.037.21.11.27.074.06.16.098.26.11.1.014.206.017.32.01.112-.007.21-.01.29-.01h2.916c.36 0 .68-.012.96-.04.278-.026.525-.09.737-.19.215-.1.404-.253.57-.46.167-.205.33-.48.49-.828l.26.06-.56 2.417zM286.736 91.854h-9.11v-.2c.414 0 .673-.057.78-.17.107-.112.16-.382.16-.808V79.508c0-.425-.053-.695-.16-.81-.107-.112-.366-.168-.78-.168v-.2h8.91l.02 2.058h-.28c-.066-.506-.223-.816-.47-.93-.246-.112-.602-.17-1.068-.17h-4.034c-.227 0-.357.025-.39.07-.034.048-.05.178-.05.39v4.574h4.055c.212 0 .398-.01.558-.03.16-.02.29-.06.39-.13.1-.065.176-.165.23-.3.052-.13.092-.31.12-.538h.26v3.017h-.26c-.028-.24-.068-.425-.12-.56-.054-.13-.13-.234-.23-.308-.1-.073-.226-.12-.38-.14-.153-.02-.342-.03-.57-.03h-4.054v5.213c0 .12.036.21.11.27.073.06.16.098.26.11.1.014.206.017.32.01.112-.007.21-.01.288-.01h3.297c.318 0 .595-.016.828-.05.233-.033.442-.103.63-.21.185-.106.352-.25.498-.43.147-.18.286-.42.42-.728h.32l-.5 2.377z" fill="#000"/><path fill-rule="evenodd" clip-rule="evenodd" d="M.992 77.642h26.6V44.62H.992V77.64z" fill="#006D2E"/><path fill-rule="evenodd" clip-rule="evenodd" d="M26.77 77.642H53.37V44.62H26.77V77.64z" fill="#FFC900"/><path fill-rule="evenodd" clip-rule="evenodd" d="M26.77 78.33v36.75c.11.204.17.432.167.663 0-1.972 3.68-2.005 3.945-2.005h19.25c1.624.183 3.086-.984 3.27-2.605.024-.222.024-.444 0-.665V78.33H26.77z" fill="#003885"/><path fill-rule="evenodd" clip-rule="evenodd" d="M27.4 78.33H1.01v32.138c-.18 1.623.986 3.086 2.61 3.27.218.024.44.024.66 0h19.252c.242 0 3.347.028 3.87 1.547V78.33z" fill="#FF1217"/><path fill-rule="evenodd" clip-rule="evenodd" d="M35.257 79.803c0 4.26-3.453 7.713-7.714 7.713-4.26 0-7.712-3.453-7.712-7.713s3.453-7.714 7.713-7.714c.18 0 .548-.357.7-.433.422-.244.92-.324 1.397-.227.477.123.792 1.198 1.228 1.41 2.682 1.283 4.39 3.99 4.39 6.963zM34.718 92.55l-1.998-.222.214 8.77c2.34-.817 4.885-.83 7.233-.037 0 0 2.46-1.063 7.39-.177l.055-9.663s-1.817.357-4.965.62c-3.147.266-2.252.93-7.93.71z" fill="#fff"/><path fill-rule="evenodd" clip-rule="evenodd" d="M30.854 102.84l-1.108.953 15.716 3.795 4.295-5.016-1.065-.445-3.702 4.213-14.136-3.5z" fill="#FFC900"/><path fill-rule="evenodd" clip-rule="evenodd" d="M33.136 100.633c2.31-.766 4.79-.852 7.15-.25 0 0 4.493-.884 7.475.034l-.044-1.264 1.497.312-3.775 3.974-13.71-2.842 1.268-1.162.14 1.197z" fill="#FFC900"/><path clip-rule="evenodd" d="M20.238 32.69l2.143-8.138-6.516-5.323 8.404-.483 3.05-7.84 3.05 7.84 8.402.482-6.518 5.322 2.143 8.14-7.078-4.552-7.08 4.55z" stroke="#000"/><mask id="a" maskUnits="userSpaceOnUse" x="17" y="11" width="21" height="21"><path fill-rule="evenodd" clip-rule="evenodd" d="M17.036 11.96H37.34v19.308H17.036v-19.31z" fill="#fff"/></mask><path fill-rule="evenodd" clip-rule="evenodd" d="M27.192 27.235l6.27 4.033-1.896-7.213 5.774-4.72-7.447-.426-2.704-6.95-2.706 6.95-7.448.424 5.776 4.72-1.897 7.214 6.277-4.033z" fill="#fff" mask="url(#a)"/><path fill-rule="evenodd" clip-rule="evenodd" d="M25.352 15.75l-3.183-9.8-.357.113L25.14 16.3l.212-.55z" fill="#101010"/><path fill-rule="evenodd" clip-rule="evenodd" d="M25.404 16.83h-.006c-.113-.002-.21-.076-.245-.185L21.825 6.41c-.044-.138.032-.287.17-.332l.355-.117c.068-.02.14-.013.202.017.063.033.11.09.134.156l3.182 9.803c.02.055.02.118 0 .176l-.213.55c-.042.102-.14.17-.25.17zM9.915 23.177h10.65l-.455-.372H9.915v.372zM20.83 22.717H10.182c-.148 0-.267-.12-.268-.266v-.37c0-.147.12-.266.268-.266H20.37c.06 0 .12.02.165.06l.457.37c.113.094.13.262.037.375-.052.06-.126.097-.206.097h.005zM24.27 18.233l.1-.247-10.19-14.02-.3.222 10.214 14.056.175-.01z" fill="#101010"/><path fill-rule="evenodd" clip-rule="evenodd" d="M24.36 18.775c-.083-.002-.165-.043-.215-.11L13.932 4.607c-.085-.117-.06-.282.056-.368l.004-.004.3-.22c.118-.085.284-.06.37.06L24.85 18.095c.052.075.064.17.032.254l-.1.246c-.037.1-.13.163-.234.17l-.176.01h-.01zM26.958 11.05l.186.478V0h-.373v11.53l.188-.48z" fill="#101010"/><path fill-rule="evenodd" clip-rule="evenodd" d="M27.41 12.06c-.068 0-.135-.03-.185-.076-.062.058-.15.087-.236.072-.127-.025-.218-.134-.22-.262V.267c0-.147.12-.266.268-.267h.373c.146 0 .265.12.264.267v11.528c0 .127-.09.236-.215.262l-.05.002zM32.317 19.283l8.388-6.094-.218-.3-8.758 6.362.587.03z" fill="#101010"/><path fill-rule="evenodd" clip-rule="evenodd" d="M32.582 18.825h-.016l-.586-.032c-.148-.01-.26-.135-.25-.28.004-.08.044-.155.108-.2l8.757-6.362c.058-.043.13-.06.2-.048.07.012.132.05.173.107l.22.3c.088.12.062.287-.058.373l-8.39 6.093c-.048.03-.102.05-.158.05zM38.355 19.498l-.272.223 10.777-3.503-.115-.353-11.067 3.596.677.038zM37.357 19.262c-.097 0-.186-.054-.23-.14-.023-.035-.034-.074-.037-.113l-.15-.012c-.147-.007-.26-.13-.253-.278.005-.11.08-.205.185-.24l11.068-3.594c.065-.022.137-.016.198.016.063.032.11.088.133.156l.115.353c.046.14-.03.29-.17.335h-.002l-10.78 3.503c-.023.008-.05.012-.076.014zM21.865 19.252L13.11 12.89l-.22.3 8.39 6.092.585-.03zM21.547 18.826c-.057 0-.11-.02-.155-.05l-8.39-6.094c-.12-.085-.148-.252-.062-.37v-.003l.22-.3c.042-.057.106-.096.174-.108.07-.012.143.006.2.05l8.757 6.36c.12.086.144.255.056.373-.048.063-.12.102-.196.107l-.585.034h-.018zM28.967 16.3l3.326-10.235-.356-.116-3.183 9.8.213.55z" fill="#101010"/><path fill-rule="evenodd" clip-rule="evenodd" d="M29.232 16.833c-.11 0-.206-.068-.247-.17l-.213-.55c-.022-.055-.024-.12-.005-.175l3.185-9.803c.045-.14.194-.218.335-.173l.354.117c.067.02.125.068.158.13.03.064.033.135.014.2l-3.326 10.236c-.034.106-.133.18-.246.183l-.008.003zM29.844 18.234l.177.01L40.234 4.188l-.298-.222-10.19 14.02.1.248z" fill="#101010"/><path fill-rule="evenodd" clip-rule="evenodd" d="M30.288 18.777h-.015l-.175-.014c-.105-.005-.197-.07-.235-.167l-.1-.247c-.032-.085-.02-.18.034-.254l10.188-14.02c.086-.118.25-.146.37-.06l.3.22c.12.086.146.25.06.37l-10.21 14.06c-.05.07-.13.11-.216.11zM44.36 22.805H34.168l-.455.372H44.36v-.372zM33.978 22.717c-.146 0-.266-.12-.266-.266 0-.08.036-.154.098-.205l.456-.37c.047-.04.107-.06.167-.06h10.194c.147 0 .266.116.268.263v.374c0 .147-.12.266-.267.265h-10.65zM16.456 19.497l.675-.036-11.066-3.596-.115.353 10.78 3.504-.274-.223zM16.996 19.262c-.028-.002-.058-.006-.083-.015L6.13 15.745c-.138-.046-.212-.195-.168-.336l.117-.353c.02-.07.068-.124.13-.155.063-.032.133-.038.2-.016l11.067 3.595c.14.046.217.194.173.334-.034.105-.13.18-.24.184l-.153.01c0 .04-.012.08-.032.114-.043.085-.133.137-.23.14zM28.754 28.754l3.288 10.122.356-.115-3.148-9.687-.496-.32z" fill="#101010"/><path fill-rule="evenodd" clip-rule="evenodd" d="M32.307 39.41c-.042 0-.083-.01-.12-.03-.063-.032-.11-.085-.13-.154l-3.29-10.122c-.045-.14.03-.29.172-.336.075-.026.16-.014.227.03l.498.32c.052.03.09.082.11.14l3.148 9.687c.045.14-.03.288-.17.333l-.355.117c-.03.01-.06.014-.09.014zM26.958 27.763l-.187.12V45.12h.374V27.882l-.186-.12z" fill="#101010"/><path fill-rule="evenodd" clip-rule="evenodd" d="M27.41 44.664h-.372c-.147 0-.267-.12-.267-.267V27.16c0-.09.046-.176.123-.224l.187-.12c.087-.057.2-.057.287 0l.188.12c.076.048.12.134.12.224v17.237c0 .148-.12.267-.264.27zM32.87 26.347l8.327 6.05.22-.3-8.697-6.317.15.567zM40.472 32.933c-.057 0-.11-.017-.156-.052l-8.33-6.05c-.048-.035-.084-.088-.1-.148l-.15-.57c-.035-.14.05-.287.19-.323.08-.022.16-.006.227.04l8.697 6.32c.118.087.145.253.06.372h-.002l-.218.3c-.043.056-.105.095-.175.107l-.043.003zM31.73 23.982l.037.148 16.467 5.35.116-.354-16.395-5.33-.226.186z" fill="#101010"/><path fill-rule="evenodd" clip-rule="evenodd" d="M48.505 30.01c-.028 0-.056-.005-.08-.013l-16.472-5.354c-.088-.026-.155-.095-.177-.183l-.04-.148c-.024-.1.01-.208.09-.272l.224-.186c.072-.056.165-.072.252-.043l16.4 5.33c.14.046.217.195.172.335l-.116.35c-.023.07-.07.125-.13.16-.04.017-.08.026-.123.026zM34.06 31.333l-.348-.225 6.657 9.164.3-.22-6.768-9.315.158.596z" fill="#101010"/><path fill-rule="evenodd" clip-rule="evenodd" d="M40.636 40.798c-.085 0-.168-.04-.217-.11l-6.656-9.162c-.077-.103-.068-.245.02-.337.04-.04.088-.067.138-.08l-.01-.042c-.034-.143.05-.287.194-.323.104-.026.213.014.277.1l6.766 9.312c.043.057.06.13.047.2-.01.07-.05.132-.107.172l-.3.22c-.045.03-.098.048-.154.048zM24.962 29.075l-3.148 9.688.354.113 3.288-10.122-.494.32z" fill="#101010"/><path fill-rule="evenodd" clip-rule="evenodd" d="M22.432 39.403c-.026 0-.054-.004-.08-.012l-.356-.116c-.066-.02-.124-.067-.155-.132-.028-.06-.035-.133-.014-.2l3.15-9.687c.017-.057.057-.107.107-.14l.494-.318c.096-.062.22-.056.308.014.09.07.125.186.09.292L22.69 39.225c-.04.11-.144.18-.258.178zM21.587 25.78l-8.697 6.318.22.3 8.328-6.053.15-.565z" fill="#101010"/><path fill-rule="evenodd" clip-rule="evenodd" d="M13.376 32.93h-.042c-.07-.012-.13-.05-.174-.106l-.22-.3c-.085-.12-.06-.287.06-.372l8.697-6.32c.118-.087.285-.063.372.056.045.065.06.148.04.225l-.148.57c-.016.058-.052.11-.1.147l-8.33 6.05c-.046.034-.098.05-.156.05zM22.575 23.982l-.225-.185-16.4 5.33.115.353 16.47-5.352.04-.146z" fill="#101010"/><path fill-rule="evenodd" clip-rule="evenodd" d="M6.332 30.012c-.042 0-.085-.01-.122-.03-.064-.032-.11-.087-.13-.156l-.118-.35c-.045-.142.032-.292.17-.338h.004l16.4-5.327c.085-.028.18-.012.25.044l.226.186c.08.065.113.17.088.272l-.04.148c-.02.087-.088.157-.175.183l-16.47 5.354c-.028.01-.056.014-.083.015zM20.49 31.337l.155-.6-6.764 9.313.302.22 6.657-9.162-.35.23z" fill="#101010"/><path fill-rule="evenodd" clip-rule="evenodd" d="M14.45 40.8c-.058 0-.112-.017-.16-.05l-.297-.22c-.12-.083-.147-.248-.063-.367 0-.002 0-.002.002-.002l6.766-9.312c.086-.12.254-.147.372-.06.09.065.13.18.1.285l-.01.04c.053.01.1.04.14.08.087.09.096.235.02.337l-6.655 9.162c-.05.07-.13.11-.216.11zM26.77 27.046h.213v-16.14h-.212v16.14z" fill="#101010"/><path fill-rule="evenodd" clip-rule="evenodd" d="M26.948 27.046h.035V11.084h-.035v15.962zm-.177.175h.39V10.908h-.39V27.22z" fill="#101010"/><path fill-rule="evenodd" clip-rule="evenodd" d="M32.204 24.024L16.856 19.04l.064-.2 15.348 4.986-.064.198zM16.085 19.097l15.183 4.934.01-.034-15.18-4.932-.012.033zm15.297 5.157l-15.518-5.04.12-.375 15.518 5.042-.12.372z" fill="#101010"/><path fill-rule="evenodd" clip-rule="evenodd" d="M22.87 24.025l-.065-.2 15.347-4.986.065.2-15.346 4.985z" fill="#101010"/><path fill-rule="evenodd" clip-rule="evenodd" d="M23.027 23.995l.013.034 15.18-4.934-.01-.033-15.183 4.932zm-.1.258l-.122-.372 15.516-5.04.122.373-15.516 5.04z" fill="#101010"/><path fill-rule="evenodd" clip-rule="evenodd" d="M23.797 18.964l.17-.125 9.49 13.052-.172.125-9.488-13.053z" fill="#101010"/><path fill-rule="evenodd" clip-rule="evenodd" d="M24.044 19.108l9.382 12.913.028-.02-9.38-12.913-.03.02zm9.342 13.16l-9.59-13.2.315-.23 9.59 13.2-.314.23z" fill="#101010"/><path fill-rule="evenodd" clip-rule="evenodd" d="M20.994 32.02l-.172-.125L30.31 18.84l.173.125-9.49 13.054z" fill="#101010"/><path fill-rule="evenodd" clip-rule="evenodd" d="M21.068 31.998l.03.02 9.383-12.91-.03-.02-9.382 12.91zm.07.27l-.316-.23 9.59-13.2.314.23-9.59 13.2zM27.904 116.298h-1.418v-.71c0-1.057-2.397-1.297-3.237-1.297H3.996c-1.99.208-3.77-1.235-3.98-3.225-.023-.25-.023-.503 0-.753V44.62h27.177v1.418H1.44v64.276c-.187 1.228.66 2.374 1.89 2.56.22.032.446.032.667 0h19.25c1.407-.084 2.8.318 3.947 1.14 1.146-.822 2.54-1.224 3.945-1.14h19.25c1.23.183 2.376-.665 2.558-1.894.033-.222.033-.446 0-.666V46.038H27.194v-1.42H54.36v65.696c.21 1.99-1.234 3.77-3.222 3.98-.25.024-.503.024-.754 0H31.14c-.84 0-3.238.237-3.238 1.297l.002.708z" fill="#101010"/><path fill-rule="evenodd" clip-rule="evenodd" d="M19.993 77.34h-19v.886h18.786c.05-.3.123-.596.213-.887zM34.703 77.34c.09.29.162.587.213.886h19.01v-.887H34.703zM27.214 71.634c.148 0 .296.005.443.013V44.62h-.886v27.027c.147-.008.296-.013.444-.013zM27.215 87.27c-.148 0-.3-.006-.444-.015v26.836h.887V87.255c-.146.01-.294.015-.442.015zM21.512 83.092H31.97l-5.23-9.056-5.228 9.056zm10.917.532H21.05l-.23-.4 5.688-9.85h.46l5.695 9.85-.236.4zM30.52 74.538c-.04 0-.08-.01-.116-.027-.567-.176-1.146-.313-1.733-.407-.345-.04-.66-.224-.865-.506-.056-.112-.056-.24 0-.352.09-.137.226-.238.385-.28-.106-.104-.207-.214-.3-.328-.1-.16-.114-.36-.035-.532.145-.34.563-.563 1.28-.69.986-.173 1.493.583 1.863 1.136.118.222.28.414.478.568.132.065.187.224.123.356-.064.13-.222.186-.352.124h-.002c-.292-.187-.53-.444-.69-.75-.415-.617-.73-1.015-1.328-.91-.7.124-.848.31-.878.363-.01.015-.015.033-.012.052.038.046.326.337.566.572.105.106.105.275 0 .38-.04.042-.096.068-.153.076-.118.014-.235.04-.35.075.115.058.237.1.363.12.633.106 1.258.257 1.87.453.133.064.19.223.125.356-.044.093-.136.15-.24.15l.002.004z" fill="#101010"/><path fill-rule="evenodd" clip-rule="evenodd" d="M26.7 86.537c-3.49 0-6.32-2.828-6.32-6.316 0-3.49 2.828-6.317 6.317-6.318 3.49 0 6.318 2.827 6.318 6.317s-2.827 6.316-6.316 6.317zm3.036-12.452l-.185.2c-.587-.185-1.19-.33-1.8-.43-.266-.03-.51-.16-.677-.367-.018-.033-.018-.073 0-.107-.125-.003-.25-.007-.375-.007-3.788-.006-6.863 3.06-6.867 6.847-.005 3.787 3.06 6.863 6.848 6.868 3.787.006 6.863-3.06 6.867-6.85.004-2.606-1.472-4.993-3.81-6.152z" fill="#101010"/><path fill-rule="evenodd" clip-rule="evenodd" d="M30.087 72.053c.12.218.29.403.5.54l-.187.2c3.67 1.936 5.073 6.48 3.133 10.15-1.937 3.67-6.483 5.074-10.15 3.135-3.67-1.938-5.073-6.483-3.135-10.153 1.302-2.463 3.86-4.005 6.646-4.003.22 0 .44.01.657.028-.074-.07-.144-.15-.21-.23-.054-.1-.05-.22.007-.315-.15-.01-.298-.015-.453-.015-4.445-.003-8.052 3.598-8.055 8.044-.004 4.447 3.6 8.053 8.044 8.056 4.447.002 8.052-3.6 8.056-8.045 0-3.213-1.906-6.12-4.855-7.394l.002.003z" fill="#101010"/><path fill-rule="evenodd" clip-rule="evenodd" d="M29.08 72.543c0 .09-.072.163-.162.163-.09 0-.163-.07-.164-.16 0-.092.073-.165.162-.165.09 0 .163.073.164.163zM29.092 72.07c-.186 0-.34-.153-.338-.34 0-.19.153-.34.34-.34.186 0 .338.15.34.34 0 .186-.152.34-.34.34h-.002zM27.005 77.746c-.997 0-1.808.808-1.81 1.807 0 .998.81 1.808 1.808 1.808 1 .002 1.81-.805 1.81-1.804 0-1-.81-1.81-1.808-1.81zm0 4.023c-1.223 0-2.216-.99-2.217-2.214 0-1.224.992-2.217 2.215-2.217 1.225-.002 2.216.99 2.217 2.213v.002c0 1.223-.99 2.214-2.215 2.214zM21.868 110.634h-2.1c-.145-.002-.26-.12-.26-.267v-4.423H5.222c-.147 0-.265-.12-.265-.266V103.384c0-.145.118-.263.264-.265h16.65c.145 0 .265.12.265.264V110.367c0 .147-.12.266-.265.267h-.004z" fill="#101010"/><path fill-rule="evenodd" clip-rule="evenodd" d="M20.498 110.56h1.57v-4.425c-.002-.012-.002-.023 0-.034v-1.99H5.947v1.762h14.283c.148-.002.268.116.27.263l-.002 4.426z" fill="#fff"/><path fill-rule="evenodd" clip-rule="evenodd" d="M17.535 103.486c-3.113 0-5.638-2.525-5.637-5.638 0-3.113 2.526-5.636 5.64-5.636 3.113 0 5.636 2.524 5.636 5.637 0 3.112-2.523 5.635-5.636 5.636h-.003z" fill="#101010"/><path fill-rule="evenodd" clip-rule="evenodd" d="M17.002 93.203c-2.82 0-5.104 2.287-5.104 5.106 0 2.82 2.287 5.104 5.106 5.103 2.82 0 5.103-2.285 5.103-5.104 0-2.82-2.284-5.107-5.104-5.107z" fill="#003885"/><path fill-rule="evenodd" clip-rule="evenodd" d="M16.337 91.502L6.94 85.494l.143-.223 9.398 6.007-.143.225z" fill="#101010"/><path fill-rule="evenodd" clip-rule="evenodd" d="M6.94 85.484l.16-.213 8.28 6.137-.16.213-8.28-6.136z" fill="#101010"/><path fill-rule="evenodd" clip-rule="evenodd" d="M6.94 85.475l.175-.204 7.437 6.382-.175.202-7.436-6.38z" fill="#101010"/><path fill-rule="evenodd" clip-rule="evenodd" d="M13.706 92.153l-6.765-6.69.185-.192 6.767 6.694-.186.19z" fill="#101010"/><path fill-rule="evenodd" clip-rule="evenodd" d="M6.94 85.447l.202-.176 6.187 7.048-.203.175-6.186-7.046z" fill="#101010"/><path fill-rule="evenodd" clip-rule="evenodd" d="M6.94 85.433l.212-.162 5.692 7.493-.213.16-5.69-7.49zM12.185 94.39L6.94 86.41l.224-.147 5.244 7.98-.223.146z" fill="#101010"/><path fill-rule="evenodd" clip-rule="evenodd" d="M11.78 94.95l-4.84-8.557.234-.13 4.838 8.558-.23.13z" fill="#101010"/><path fill-rule="evenodd" clip-rule="evenodd" d="M11.406 95.633L6.94 86.38l.24-.117 4.465 9.256-.24.113z" fill="#101010"/><path fill-rule="evenodd" clip-rule="evenodd" d="M11.105 96.52L6.94 86.364l.246-.1L11.35 96.42l-.245.1z" fill="#101010"/><path fill-rule="evenodd" clip-rule="evenodd" d="M6.94 86.35l.252-.087 4.013 11.657-.25.086L6.94 86.35z" fill="#101010"/><path fill-rule="evenodd" clip-rule="evenodd" d="M5.358 84.477l.56.458-.184.7.605-.392.61.39-.187-.698.562-.458-.722-.042-.262-.67-.258.67-.724.042zm2.45 2.343l-1.468-.946-1.467.944.444-1.688-1.35-1.106 1.742-.1.63-1.627.636 1.627 1.744.1-1.35 1.106.438 1.69z" fill="#101010"/><path fill-rule="evenodd" clip-rule="evenodd" d="M5.95 84.993l.558.457-.183.7.606-.392.61.39-.186-.698.562-.457-.722-.042-.263-.67-.258.67-.723.043z" fill="#fff"/><path fill-rule="evenodd" clip-rule="evenodd" d="M15.317 103.113c-.11.007-.213-.062-.25-.167-.054-.315-.088-.634-.1-.954-.017-.186-.03-.383-.04-.424-.008-.16-.008-.317 0-.476 0-.2.007-.537-.008-.607-.017-.037-.03-.077-.037-.118-.03-.11-.107-.4-.212-.436-.843-.306-.81-.583-.8-.673.002-.097-.003-.196-.014-.292-.043-.492-.058-.823.143-.947.065-.042.15-.082.236-.126.045-.018.107-.05.16-.078-.134-.048-.242-.15-.3-.28-.127-.11-.262-.208-.407-.29-.116-.07-.224-.147-.324-.235-.043-.053-.076-.112-.1-.174-.21-.42-.3-.5-.34-.508-.226-.016-.854-.178-.996-.467-.047-.092-.042-.206.018-.295.366-.558.797-1.07 1.284-1.528.46-.31.945-.585 1.45-.818.05-.024.11-.02.16.006.048.03.082.077.088.132 0 0 .07.514.09.736.013.116.074.234.17.2.1-.063.19-.14.27-.23.178-.182.348-.355.545-.355h.032c.056-.01.11-.028.163-.054.076-.04.16-.066.246-.07.066 0 .282.023.282.368 0 .16-.006.26-.015.343-.01.137-.006.274.013.41.023.175-.035.354-.155.486-.137.187-.385.256-.604.173-.03-.02-.06-.044-.09-.067-.053-.053-.12-.09-.19-.107-.015 0-.027.004-.04.01-.205.082-.376.234-.48.43-.1.266-.345.5-.53.5-.023-.002-.047-.006-.07-.013-.173-.058-.187-.28-.187-.524-.023-.04-.057-.073-.1-.09-.056-.01-.107-.024-.158-.044-.034-.013-.07-.023-.107-.032-.124.135-.195.31-.2.493.12.348.325.66.6.907.48.31.94.655 1.366 1.035.257.122.52.226.79.31.443.125.984.358 1.035.745.012.456-.155.9-.468 1.232-.218.173-.415.37-.59.587-.037.046-.077.092-.12.134-.088.092-.118.124-.2.54-.11.5-.252.99-.43 1.47-.013.04-.042.074-.078.094-.124.073-.26.118-.403.135z" fill="#101010"/><path fill-rule="evenodd" clip-rule="evenodd" d="M14.853 98.84c.16.15.357.26.57.313.282.102.377.465.434.682.007.03.015.058.026.086.044.242.054.49.03.732v.414c0 .044.023.2.043.456.014.223.044.594.07.777.033-.012.067-.027.097-.045.16-.44.29-.888.39-1.343.09-.48.145-.572.29-.726.034-.035.07-.072.1-.11.194-.24.412-.458.653-.65.204-.255.32-.57.33-.898-.017-.114-.268-.3-.782-.45-.328-.097-.645-.232-.942-.4-.395-.346-.812-.667-1.247-.96-.392-.293-.68-.706-.82-1.176-.012-.306.102-.602.317-.82.056-.056.134-.088.214-.085.08.004.163.02.237.05.032.012.065.022.1.03.212.045.37.224.392.44v.083c.04-.05.076-.105.1-.167.136-.286.375-.51.668-.63.06-.027.12-.04.183-.04.15.01.295.075.406.178.02.016.035.03.055.04.063-.013.12-.047.158-.097.055-.057.08-.133.07-.21-.02-.158-.026-.316-.013-.474.006-.078.013-.17.013-.31-.01 0-.022.01-.035.013-.103.055-.22.083-.338.082-.108.068-.206.153-.29.25-.113.136-.254.246-.417.32-.277.062-.55-.113-.614-.39-.01-.038-.012-.077-.012-.118-.012-.12-.038-.32-.056-.484-.407.197-.798.423-1.17.678-.444.42-.838.89-1.172 1.398.204.138.438.225.683.25.274.02.463.36.632.706.017.037.033.067.044.088.08.063.167.122.253.176.345.223.516.343.556.49.044.027.09.054.14.076.117.062.3.154.26.34-.03.16-.216.25-.45.36-.07.035-.137.07-.19.1-.025.21-.024.42.007.626.016.117.025.234.026.35z" fill="#fff"/><path fill-rule="evenodd" clip-rule="evenodd" d="M18.975 94.14c-.26 0-.44-.124-.457-.31-.02-.09-.076-.17-.154-.22-.175-.067-.318-.195-.4-.363-.062-.17-.1-.353-.115-.534-.004-.025 0-.05.008-.074l.1-.305c.025-.076.098-.126.178-.123.457.035.905.136 1.334.3.048.02.084.06.1.108.016.05.01.103-.016.147-.083.13-.156.266-.217.407 0 .02-.007.07-.01.14-.036.514-.067.804-.295.825h-.057z" fill="#101010"/><path fill-rule="evenodd" clip-rule="evenodd" d="M18.51 94.39c.018.005.034.01.05.012.03-.162.047-.328.054-.494.006-.087.012-.153.017-.18.036-.12.087-.233.155-.34-.292-.09-.59-.154-.894-.185l-.043.135c.012.13.04.26.083.386.038.087.1.128.23.19.182.1.31.274.35.476z" fill="#fff"/><path fill-rule="evenodd" clip-rule="evenodd" d="M21.48 101.277c-.097 0-.176-.074-.18-.17 0-.013.002-.025.006-.037.037-.2.06-.402.074-.605-.02-.115-.03-.232-.025-.348.002-.075 0-.15-.008-.225-.027-.093-.063-.183-.11-.267-.06-.1-.103-.21-.124-.324-.027-.147-.096-.28-.2-.39-.096-.13-.165-.276-.206-.432-.023-.088-.057-.172-.107-.25-.08-.11-.14-.236-.175-.37-.01-.038-.024-.076-.04-.113-.2-.206.137-.756.14-.76.138-.12.295-.212.466-.273l.024-.01c.157-.05.32-.09.483-.12.05-.036.1-.08.142-.126-.016-.067-.038-.13-.063-.195-.03-.085-.038-.18-.026-.275-.053.042-.116.067-.184.074-.174.014-.348-.014-.508-.084-.03-.01-.062-.02-.093-.024-.062.004-.122-.016-.17-.055-.078-.057-.164-.104-.254-.14-.054-.002-.11.002-.164.012h-.008c-.023.033-.04.07-.055.11-.02.14-.04.305-.04.34 0 .247-.488.39-.644.39-.027 0-.052-.002-.075-.008-.398-.088-.48-.147-.516-.252-.003-.19.046-.38.137-.55-.007-.026-.016-.05-.026-.077-.047-.092-.05-.204-.007-.3.053-.076.113-.146.184-.205.033-.03.075-.043.118-.043.1-.002.2.004.3.017l.066-.025c.056-.09.118-.173.187-.252l.016-.013c.06-.05.1-.12.11-.2.008-.078.002-.157-.013-.234-.007-.032-.012-.067-.015-.1-.005-.028-.02-.048-.06-.1-.026-.03-.053-.06-.076-.092-.08-.1-.133-.222-.148-.35-.007-.146.07-.283.2-.35.1-.07.19-.145.278-.226.058-.054.144-.062.21-.02.202.127.392.27.57.426.565.644 1.07 1.335 1.512 2.065.383 1.03.477 2.142.272 3.22-.153.833-.513 1.615-1.05 2.274-.03.037-.076.06-.124.063z" fill="#101010"/><path fill-rule="evenodd" clip-rule="evenodd" d="M20.305 98.137c.038.065.068.136.087.21.02.09.06.174.114.25.076.11.133.233.166.365.027.11.076.217.14.31.15.164.245.366.278.584.026.068.055.135.09.2.07.12.12.252.147.39 0 .07.008.163.01.256 0 .084.002.168.012.25.006.018.01.04.01.058.285-.474.48-.995.58-1.538.19-1 .11-2.03-.235-2.987-.422-.696-.903-1.355-1.435-1.97-.13-.115-.266-.22-.408-.32-.08.072-.165.135-.257.19-.002.012-.002.022 0 .034.023.055.053.105.09.152.012.022.028.042.046.06.077.076.128.176.146.283.002.025.005.052.012.08.02.106.027.217.016.326-.014.165-.09.317-.216.425-.067.078-.126.16-.18.25-.02.025-.043.047-.07.06-.104.054-.22.08-.337.076-.026-.004-.1-.008-.162-.01-.014.013-.03.028-.04.043l.01.03c.06.112.063.242.013.356-.038.077-.068.156-.09.24.074.022.15.042.228.057.1-.014.2-.047.288-.098.01-.112.033-.284.042-.343l.006-.03c.043-.12.133-.326.3-.357l.038-.006c.112-.025.23-.025.342 0 .117.046.228.107.33.178.065.008.126.023.187.045.11.05.23.072.35.065.013 0 .024-.004.032-.01.057-.043.128-.064.2-.064.085.003.17.015.255.034.09.026.144.12.124.21-.02.082-.027.166-.022.25.04.098.074.197.1.3.016.08-.01.165-.065.227 0 0-.23.276-.4.276-.033 0-.24.06-.41.108-.114.047-.225.106-.327.173-.06.103-.105.214-.13.33z" fill="#fff"/><path fill-rule="evenodd" clip-rule="evenodd" d="M45.875 110.58c-.03 0-.06-.006-.087-.017-.106-.036-.18-.138-.178-.252l.006-2.89c0-.06.023-.12.064-.167l4.308-5.033c.096-.11.264-.124.375-.03.06.053.096.13.092.21l-.015.37c-.037.3-.024.603.04.9.03.127.112.235.225.3.077.03.134.098.153.177.02.08.004.163-.046.227l-4.73 6.098c-.047.066-.125.107-.207.108z" fill="#101010"/><path fill-rule="evenodd" clip-rule="evenodd" d="M46.602 107.5v2.01l4.083-5.27c-.136-.13-.23-.3-.268-.487-.05-.207-.07-.42-.06-.634l-3.755 4.38z" fill="#fff"/><path fill-rule="evenodd" clip-rule="evenodd" d="M39.928 100.234c-.025 0-.052-.004-.077-.01-.112-.036-.19-.14-.19-.258l.178-9.93c.002-.09.047-.17.12-.22.51-.36 1.114-.563 1.74-.58.6.03 1.19.18 1.732.44.262.107.54.16.823.153.56-.018 1.107-.147 1.613-.385.133-.065.29-.01.358.123.018.035.026.075.026.115 0 .075.033 7.332 0 9.818 0 .146-.122.264-.268.262-.023 0-.045-.003-.068-.01-1.03-.3-2.093-.466-3.165-.49-2.034 0-2.597.837-2.597.848-.05.077-.135.124-.227.124h.002z" fill="#101010"/><path fill-rule="evenodd" clip-rule="evenodd" d="M40.817 90.65l-.164 9.164c.77-.456 1.657-.674 2.552-.626 1.004.02 2.002.162 2.97.424.02-2.353 0-7.59 0-9.068-.468.176-.965.27-1.466.28-.354.005-.705-.063-1.032-.196-.475-.238-.995-.372-1.525-.4-.477.012-.94.157-1.336.42z" fill="#fff"/><path fill-rule="evenodd" clip-rule="evenodd" d="M40.19 100.918c-.087 0-.167-.042-.218-.11-.32-.454-1.11-.692-2.286-.692-1.19.034-2.376.194-3.532.477-.078.02-.163.002-.227-.046-.065-.05-.104-.126-.105-.208l-.11-8.67c0-.08.035-.157.1-.208.064-.05.147-.07.225-.055.284.055.57.08.857.077.883.006 1.754-.224 2.52-.667.58-.366 1.25-.57 1.938-.587.423-.013.842.09 1.21.298.076.05.12.138.12.228 0 0-.136 5.734-.223 9.9-.002.114-.078.215-.188.25-.026.008-.055.012-.082.012z" fill="#101010"/><path fill-rule="evenodd" clip-rule="evenodd" d="M38.144 99.05c.78-.05 1.56.116 2.252.478.077-3.663.184-8.224.2-9.15-.252-.102-.52-.152-.793-.15-.592.018-1.17.196-1.67.515-.845.49-1.81.746-2.788.738-.214 0-.428-.01-.642-.035l.098 8.02c1.1-.252 2.22-.392 3.344-.415z" fill="#101010"/><path fill-rule="evenodd" clip-rule="evenodd" d="M40.19 100.918c-.087 0-.167-.042-.218-.11-.32-.454-1.11-.692-2.286-.692-1.19.034-2.376.194-3.532.477-.078.02-.163.002-.227-.046-.065-.05-.104-.126-.105-.208l-.11-8.67c0-.08.035-.157.1-.208.064-.05.147-.07.225-.055.284.055.57.08.857.077.883.006 1.754-.224 2.52-.667.58-.366 1.25-.57 1.938-.587.423-.013.842.09 1.21.298.076.05.12.138.12.228 0 0-.136 5.734-.223 9.9-.002.114-.078.215-.188.25-.026.008-.055.012-.082.012z" fill="#101010"/><path fill-rule="evenodd" clip-rule="evenodd" d="M38.144 99.05c.78-.05 1.56.116 2.252.478.077-3.663.184-8.224.2-9.15-.252-.102-.52-.152-.793-.15-.592.018-1.17.196-1.67.515-.845.49-1.81.746-2.788.738-.214 0-.428-.01-.642-.035l.098 8.02c1.1-.252 2.22-.392 3.344-.415z" fill="#fff"/><path fill-rule="evenodd" clip-rule="evenodd" d="M45.945 105.987c-.028 0-.06-.006-.086-.016-.103-.036-.173-.13-.177-.24l-.073-2.233c-.002-.07.024-.138.07-.19l3.796-4.07c.102-.108.272-.113.38-.01.054.05.083.12.082.194l-.006.322c-.025.255-.01.514.048.765.024.097.09.182.184.226.078.035.133.103.153.186.02.08-.002.168-.056.233l-4.108 4.74c-.053.062-.127.094-.207.094z" fill="#101010"/><path fill-rule="evenodd" clip-rule="evenodd" d="M45.61 103.633l.047 1.442 3.478-4.01c-.105-.113-.177-.25-.21-.4-.046-.17-.067-.345-.066-.52l-3.25 3.488z" fill="#fff"/><path fill-rule="evenodd" clip-rule="evenodd" d="M49.296 99.8c-.007.002-.015.002-.02 0l-1.456-.117c-.146-.022-.247-.157-.223-.303.018-.132.134-.23.267-.227l1.453.12c.145.01.254.14.242.287-.013.138-.127.242-.264.243V99.8zM45.232 105.873c-.02 0-.04-.003-.06-.01l-13.514-3.282c-.576-.16-.96-.705-.916-1.302-.03-.32.075-.638.287-.88.172-.172.41-.264.653-.253l.03.006 13.584 2.838c.123.025.212.134.21.26v2.357c0 .147-.116.266-.264.267h-.01z" fill="#101010"/><path fill-rule="evenodd" clip-rule="evenodd" d="M32.088 101.136c-.083.007-.16.04-.22.1-.108.143-.155.32-.134.498.013.67.453.783.5.795l13.19 3.206.004-1.805-13.34-2.794z" fill="#FFC900"/><path fill-rule="evenodd" clip-rule="evenodd" d="M31.005 101.07c-.076.002-.15-.03-.2-.087-.098-.107-.09-.276.018-.374l1.534-1.39c.11-.098.28-.088.38.02.098.112.088.282-.022.38l-1.533 1.39c-.05.04-.114.065-.18.065l.003-.004zM33.98 103.532c-.148 0-.268-.12-.268-.268v-1.86c0-.148.12-.267.266-.268.146 0 .268.118.27.265v1.865c-.002.148-.123.267-.27.267zM35.96 103.477c-.145 0-.264-.116-.265-.262V101.4c0-.145.12-.264.267-.264.146 0 .266.12.266.264v1.812c0 .147-.12.265-.266.264zM40.92 105.6c-.147 0-.267-.118-.267-.265v-1.95c0-.147.12-.266.266-.266.146-.003.268.116.268.264v1.95c0 .147-.122.265-.268.265z" fill="#101010"/><path fill-rule="evenodd" clip-rule="evenodd" d="M46.298 110.22c-.024 0-.05-.005-.072-.012l-15.47-4.348c-.646-.195-1.067-.818-1.004-1.49 0-.922.54-1.25 1.003-1.25h.065c.012.002.023.005.035.005l15.505 3.754c.117.028.2.134.2.256v2.81c0 .148-.117.267-.264.27h-.004l.006.003z" fill="#101010"/><path fill-rule="evenodd" clip-rule="evenodd" d="M30.22 104.11c-.188 0-.474.1-.474.718 0 .81.535.96.6.972l15.152 4.26v-2.252L30.22 104.11z" fill="#FFC900"/><path fill-rule="evenodd" clip-rule="evenodd" d="M30.012 103.868c-.146 0-.266-.118-.266-.264 0-.076.035-.15.09-.2l1.39-1.21c.11-.098.278-.087.376.023.096.11.086.278-.025.376l-1.39 1.214c-.05.04-.113.062-.175.06zM50.073 102.778h-.023l-1.225-.12c-.146-.016-.254-.146-.24-.292.014-.145.144-.252.29-.237l1.224.116c.146.013.255.142.243.29-.014.14-.13.244-.27.242zM31.904 106.57c-.098 0-.176-.08-.175-.178v-2.105c0-.098.077-.177.175-.177.1 0 .178.08.178.177v2.105c0 .097-.076.176-.175.178h-.004zM40.832 108.906c-.097.002-.176-.075-.18-.172v-2.463c.002-.1.082-.178.18-.177.098 0 .176.08.178.177v2.46c0 .098-.08.176-.177.176zM39.997 90.55c-1.073.018-2.022-.69-2.312-1.723-.028-.094.026-.192.12-.22.045-.013.092-.008.132.016.134.065.272.123.413.17-.203-.305-.354-.643-.453-.997-.017-.07.006-.142.062-.186.054-.043.13-.05.194-.018.14.07.285.13.435.182-.142-.243-.25-.504-.326-.774-.02-.067.005-.14.06-.185.055-.044.132-.05.194-.016.218.11.45.195.687.253.245-.34.39-.743.414-1.16.042-.318.087-.622.358-.622.25 0 .296.268.348.577.035.416.186.813.435 1.148.25-.046.494-.116.73-.205.092-.037.195.01.232.102.014.035.016.073.005.11-.075.27-.186.533-.327.776.148-.053.295-.114.438-.184.062-.035.14-.027.194.017.057.044.08.118.06.187-.097.355-.252.692-.456.998.142-.05.28-.108.416-.174.087-.046.193-.014.24.072.02.04.027.09.015.132-.29 1.035-1.24 1.743-2.31 1.726z" fill="#101010"/><path fill-rule="evenodd" clip-rule="evenodd" d="M38.67 88.473c.544 1.007 1.8 1.382 2.807.838.355-.192.645-.482.837-.837-.222.085-.455.142-.69.17-.08.01-.156-.038-.185-.113-.03-.078-.002-.163.063-.21.28-.235.492-.537.615-.88-.222.085-.453.143-.687.173-.078.007-.155-.04-.182-.115-.028-.077-.002-.16.064-.207.208-.187.366-.424.457-.69-.184.057-.372.097-.56.12-.055.008-.107-.01-.145-.05-.34-.39-.547-.882-.594-1.4l-.005.042c-.03.523-.23 1.024-.57 1.422-.04.037-.092.058-.145.05-.177-.023-.352-.067-.516-.135.09.245.238.465.43.64.08.056.1.166.045.246-.04.052-.102.082-.167.073-.232-.03-.46-.086-.68-.17.122.342.333.644.61.88.08.055.1.165.044.245-.036.053-.1.08-.164.073-.233-.026-.462-.082-.684-.165z" fill="#FFC900"/><path fill-rule="evenodd" clip-rule="evenodd" d="M42.086 62.728c-.017.002-.033.002-.052 0-.09-.02-.167-.084-.198-.173-.245-.692-.694-1.463-.943-1.463-.028 0-.078.012-.155.026-.576.11-1.163.17-1.75.174-2.408 0-3.843-1.124-4.154-3.255-.61-4.216 1.1-5.613 1.322-5.773.463-.447 1.082-.7 1.727-.705 1.103-.01 2.072.724 2.357 1.788.194 1.02-.082 2.07-.75 2.866-.075.03-.154.046-.233.046-.47-.097-.89-.36-1.185-.738-.18.247-.31.527-.384.822-.188.632-.103 1.314.238 1.878.227.374.617.525 1.338.525.216 0 .435-.01.67-.024.234-.013.478-.028.717-.028.71-.07 1.41.197 1.89.72.714.994.606 2.358-.257 3.226-.05.06-.122.09-.2.088h.003z" fill="#101010"/><path fill-rule="evenodd" clip-rule="evenodd" d="M40.386 60.03c.558 0 1.01.79 1.262 1.36.466-.65.454-1.53-.033-2.167-.378-.402-.926-.596-1.474-.52-.222 0-.457.01-.687.025-.23.013-.466.024-.7.024-.692.086-1.378-.21-1.79-.774-.45-.76-.538-1.68-.235-2.51.115-.445.388-.834.765-1.097.106-.04.227-.007.3.08.235.34.567.6.95.75.417-.683.582-1.487.468-2.277-.23-.818-.986-1.38-1.837-1.363-.515.006-1.007.21-1.377.57-.01.012-.02.022-.032.03-.346.29-.61.665-.773 1.087-.5 1.335-.618 2.782-.34 4.18.27 1.86 1.49 2.802 3.63 2.802.554-.007 1.11-.063 1.656-.168.092-.016.158-.027.2-.03.017-.002.033-.003.05-.003z" fill="#fff"/><path fill-rule="evenodd" clip-rule="evenodd" d="M40.958 65.88c-.636.05-1.263-.167-1.73-.6-1.176-1.23-.23-2.97.434-3.718.053-.06.13-.093.21-.087.08.003.152.04.2.1.015.022.366.488.825 1.198.05.08.056.183.01.267-.015.032-.03.064-.037.1.11.047.232.066.352.056.402-.016.8-.078 1.19-.185 1.255-.317 2.23-.108 2.706.58.452.656.294 1.386-.47 2.17-.072.073-.177.098-.273.068-.096-.03-.167-.112-.18-.212-.012-.066-.124-.1-.333-.1-.38.02-.76.07-1.133.145-.586.12-1.178.192-1.773.21v.01z" fill="#101010"/><path fill-rule="evenodd" clip-rule="evenodd" d="M39.322 62.466c-.388.545-1.11 1.82-.243 2.726.368.323.855.48 1.345.432.566-.02 1.127-.087 1.683-.2.402-.084.813-.134 1.224-.155.22-.015.438.042.625.16.5-.63.36-1.01.194-1.25-.285-.357-.733-.543-1.187-.498-.323.004-.64.05-.953.13-.43.12-.873.187-1.318.202-.42 0-.684-.105-.81-.316-.085-.143-.1-.318-.037-.47-.21-.315-.39-.578-.523-.762z" fill="#fff"/><path fill-rule="evenodd" clip-rule="evenodd" d="M45.572 74.238h-.047c-.344-.048-.45-.4-.544-.714-.045-.206-.13-.4-.25-.57-.08-.09-.17-.173-.266-.26-.386-.277-.633-.707-.677-1.177 0-.075-.008-.15-.012-.218.07-.552-.143-1.1-.565-1.462-.224-.176-.485-.3-.762-.363-.66-.144-1.23-.562-1.562-1.15-.8-1.357.707-2.755.77-2.814.056-.05.127-.075.2-.068.074.006.14.043.186.1.473.495.85 1.074 1.113 1.705l.136-.014c.205-.03.41-.047.618-.05.275-.01.55.046.8.163.692.345 1.027 1.146.787 1.882-.17.485-.01 1.023.39 1.342.265.193.43.494.458.82.052.934-.114 1.87-.487 2.73-.072.078-.172.123-.277.125l-.008-.007z" fill="#101010"/><path fill-rule="evenodd" clip-rule="evenodd" d="M42.27 66.432c-.326.38-.902 1.207-.473 1.943.268.472.73.805 1.264.91.354.084.68.248.96.477.524.457.8 1.137.74 1.83 0 .07.006.14.012.214.04.33.223.63.5.815.107.094.21.195.306.3.174.228.297.49.362.768.016.06.04.132.062.2.183-.707.268-1.437.252-2.167-.006-.172-.1-.267-.286-.446-.537-.44-.756-1.16-.554-1.824.13-.7-.01-1.067-.5-1.31-.173-.08-.365-.115-.556-.106-.185 0-.37.016-.553.043-.132.015-.245.03-.34.03-.135.01-.265-.046-.35-.15-.066-.093-.08-.21-.036-.314-.23-.43-.5-.836-.81-1.21z" fill="#fff"/><path fill-rule="evenodd" clip-rule="evenodd" d="M34.165 54.664c-.084 0-.165-.042-.214-.11l-2.083-2.906c-.197.046-.397.068-.6.07-.505.03-.994-.195-1.297-.6-.555-.81-.046-2.086 1.156-2.906.533-.38 1.167-.595 1.82-.616.51-.03 1 .194 1.305.6.355.647.266 1.447-.224 1.997l1.145 1.76c.063.09.063.21 0 .298-.423.658-.678 1.406-.745 2.185-.012.11-.093.2-.2.225-.02.004-.04.005-.06.004z" fill="#101010"/><path fill-rule="evenodd" clip-rule="evenodd" d="M32.436 51.535c.085 0 .166.043.214.113l1.81 2.53c.116-.574.328-1.123.63-1.626l-1.15-1.766c-.066-.096-.06-.22.012-.31.416-.392.542-1 .318-1.523-.21-.256-.534-.393-.864-.364-.548.02-1.076.203-1.524.52-.922.63-1.388 1.624-1.016 2.166.21.258.533.395.864.365.213 0 .427-.035.632-.098.024-.007.05-.01.074-.007z" fill="#FF1217"/><path fill-rule="evenodd" clip-rule="evenodd" d="M38.882 59.29c-.693.085-1.378-.212-1.79-.775-.503-.87-.54-1.932-.102-2.837.042-.087.128-.145.225-.15.097-.01.19.036.24.117l2.1 3.222c.05.08.054.18.01.267-.043.085-.127.14-.222.144-.158.007-.312.01-.46.01z" fill="#101010"/><path fill-rule="evenodd" clip-rule="evenodd" d="M36.776 55.525c-.177.624-.09 1.293.243 1.85.225.367.603.52 1.302.525l-1.547-2.375z" fill="#FF1217"/><path fill-rule="evenodd" clip-rule="evenodd" d="M38.387 52.905c0 .195-.157.354-.353.354-.196 0-.355-.158-.356-.353 0-.196.158-.356.355-.356.195 0 .354.16.354.355z" fill="#101010"/><path fill-rule="evenodd" clip-rule="evenodd" d="M38.214 52.91c-.098-.002-.177.076-.177.174 0 .097.077.178.175.178.1 0 .18-.08.18-.176v-.002c-.002-.097-.08-.174-.178-.175zm0 .708c-.294 0-.534-.236-.536-.53-.002-.295.236-.534.53-.537.295 0 .535.237.537.53v.004c0 .294-.237.532-.53.534zM41.082 64.108h-.085c-.082-.003-.16-.044-.207-.112L38.718 61.1c-.057-.082-.064-.187-.02-.275.043-.087.134-.145.234-.146.52-.014 1.037-.068 1.548-.166.092-.017.16-.027.2-.03H40.74c.09.004.173.048.224.122l1.854 2.844c.047.076.055.168.022.25-.036.08-.11.14-.195.157-.077.017-.158.033-.24.053-.43.117-.874.183-1.32.198z" fill="#101010"/><path fill-rule="evenodd" clip-rule="evenodd" d="M38.67 60.64l1.707 2.386c.343-.02.683-.072 1.014-.155l-1.554-2.387h-.03c-.375.072-.756.124-1.136.156z" fill="#FF1217"/><path fill-rule="evenodd" clip-rule="evenodd" d="M45.022 68.43c-.05 0-.1-.013-.14-.036-.04-.027-.08-.05-.123-.07-.175-.08-.366-.116-.558-.107-.183.004-.367.018-.55.044l-.18.023c-.093.01-.186-.033-.242-.11l-.54-.753c-.163-.252-.36-.516-.497-.7l-.5-.697c-.054-.075-.064-.17-.028-.254.033-.086.11-.15.2-.164l.122-.022c.48-.11.977-.158 1.473-.14.075.012.143.054.184.12l1.582 2.423c.098.11.086.278-.023.374-.05.044-.113.068-.178.067l-.003.004z" fill="#101010"/><path fill-rule="evenodd" clip-rule="evenodd" d="M42.64 65.54l.246.348c.137.18.34.454.51.71l.438.615h.015c.203-.03.41-.046.616-.05.067 0 .133 0 .192.007l-1.123-1.73c-.3.01-.603.043-.9.102l.004-.003z" fill="#FF1217"/><path fill-rule="evenodd" clip-rule="evenodd" d="M50.346 76.365c-.054 0-.104-.017-.147-.047l-.94-.634c-.025-.02-.047-.042-.066-.066l-2.62-3.663c-.034-.047-.05-.102-.05-.16v-.193c-.006-.174-.1-.267-.285-.447-.54-.44-.758-1.16-.556-1.825.044-.2.055-.407.034-.612-.02-.144.08-.28.226-.3.102-.015.206.033.26.12l4.113 6.31c.017.027.03.055.035.087l.256 1.105c.024.107-.02.218-.11.28-.045.03-.097.046-.152.045z" fill="#101010"/><path fill-rule="evenodd" clip-rule="evenodd" d="M49.065 75.18l.337.228-.093-.4-3.65-5.6c-.14.466.022.968.406 1.27.264.192.43.49.454.818v.126l2.545 3.56z" fill="#FF1217"/><path fill-rule="evenodd" clip-rule="evenodd" d="M48.074 90.28c-.067-.05-.157-.064-.238-.038-.414.134-.928.253-1.346.343v.542c.343-.07.77-.166 1.162-.277-.007 1.845-.044 7.622-.057 9.044-1.353-.242-2.722-.373-4.096-.39-.962-.036-1.924.102-2.837.407-.03.07-.09.123-.16.146-.026.01-.054.013-.08.013-.087 0-.168-.043-.218-.112-.005-.01-.01-.018-.017-.027-.97-.302-1.983-.452-2.997-.445-1.283.004-2.556.23-3.762.67-.014-2.224-.133-6.934-.165-8.218.174.032.412.07.7.112l-.01-.54c-.544-.083-.9-.153-.908-.156-.08-.013-.162.007-.224.058-.065.05-.1.128-.1.21 0 .067.18 6.614.18 8.918 0 .09.044.17.117.22.044.03.096.045.148.043.034.002.07-.005.1-.017 1.248-.505 2.58-.768 3.927-.77 1.07-.016 2.134.164 3.14.53.074.035.16.03.23-.007.924-.395 1.93-.57 2.934-.508 1.444.024 2.885.172 4.304.44.08.018.16-.003.223-.053.06-.048.098-.123.1-.202 0-.084.058-8.29.058-9.726 0-.083-.038-.162-.106-.212zM23.45 79.676c1.375 1.932 4.057 2.385 5.988 1.01.393-.278.733-.62 1.014-1.01-1.377-1.934-4.058-2.386-5.99-1.013-.393.28-.734.62-1.012 1.013zm3.503 2.334c-1.633.003-3.155-.82-4.048-2.188l-.1-.146.1-.145c1.458-2.233 4.45-2.864 6.683-1.406.562.367 1.04.846 1.408 1.407l.1.146-.1.147c-.89 1.366-2.412 2.19-4.043 2.187z" fill="#101010"/><path fill-rule="evenodd" clip-rule="evenodd" d="M27.66 80.263c0 .52-.424.94-.942.938-.52 0-.94-.42-.938-.94 0-.52.423-.94.943-.938.248 0 .486.098.662.275.175.177.275.416.275.666zM6.35 103.91l-.4-.19 1.687-4.567 1.235.598-2.523 4.16z" fill="#101010"/><path fill-rule="evenodd" clip-rule="evenodd" d="M7.66 99.153l-.72 1.946 1.077-1.774-.356-.173z" fill="#FFC900"/><path fill-rule="evenodd" clip-rule="evenodd" d="M10.457 103.915L7.932 99.75l1.236-.597 1.686 4.566-.397.195z" fill="#101010"/><path fill-rule="evenodd" clip-rule="evenodd" d="M8.924 99.325L10 101.1l-.72-1.947-.356.172z" fill="#FFC900"/><path fill-rule="evenodd" clip-rule="evenodd" d="M8.224 99.734c-.708 0-1.282-.573-1.283-1.28 0-.708.572-1.283 1.28-1.284.707-.002 1.28.572 1.282 1.28v.002c0 .707-.572 1.28-1.278 1.282z" fill="#101010"/><path fill-rule="evenodd" clip-rule="evenodd" d="M8.68 98.16c-.414 0-.748.337-.748.75 0 .414.334.75.75.75.41 0 .746-.335.747-.748 0-.414-.335-.75-.748-.75z" fill="#FFC900"/><path fill-rule="evenodd" clip-rule="evenodd" d="M11.898 71.39c.026 1.316 1.116 2.362 2.433 2.335 1.28-.025 2.31-1.056 2.335-2.335h-4.767z" fill="#fff"/><path fill-rule="evenodd" clip-rule="evenodd" d="M11.46 71.923c.184 1.157 1.268 1.947 2.424 1.762.907-.143 1.62-.853 1.762-1.762H11.46zm2.098 2.32c-1.44.006-2.618-1.142-2.65-2.58-.003-.07.025-.14.074-.193.05-.05.12-.078.193-.08h4.766c.148 0 .267.116.268.263v.01c-.033 1.44-1.212 2.586-2.65 2.58z" fill="#101010"/><path fill-rule="evenodd" clip-rule="evenodd" d="M15.195 71.576H12.89l1.146-22.99 1.16 22.99z" fill="#fff"/><path fill-rule="evenodd" clip-rule="evenodd" d="M13.433 71.574h1.745L14.3 54.162l-.867 17.412zm2.03.533h-2.306c-.148 0-.267-.12-.267-.265v-.013l1.146-22.992c.005-.142.124-.254.266-.253.143 0 .258.112.266.253l1.156 22.947c.003.017.004.038.005.057 0 .145-.116.264-.262.266h-.006z" fill="#101010"/><path fill-rule="evenodd" clip-rule="evenodd" d="M9.915 67.618h7.13v-1.186h-7.13v1.186z" fill="#fff"/><path fill-rule="evenodd" clip-rule="evenodd" d="M10.446 67.615h6.598v-.65h-6.598v.65zm6.864.532h-7.13c-.146 0-.265-.12-.265-.264v-1.186c0-.146.12-.265.266-.265h7.13c.147 0 .266.12.266.265v1.185c0 .146-.115.264-.263.265h-.003z" fill="#101010"/><path fill-rule="evenodd" clip-rule="evenodd" d="M13.16 69.643c-.147.002-.268-.114-.27-.26 0-.08.035-.158.096-.208l2.025-1.7c.118-.086.285-.062.373.057.08.108.067.26-.03.353l-2.023 1.697c-.05.04-.11.06-.17.06zM13.157 71.66c-.147 0-.267-.118-.267-.265 0-.08.035-.153.096-.204l2.063-1.722c.11-.094.28-.078.374.035.092.113.078.28-.037.375l-2.06 1.722c-.05.04-.11.06-.17.06z" fill="#101010"/><path fill-rule="evenodd" clip-rule="evenodd" d="M17.877 58.66l2.648-6.105 2.65 6.104h-5.298zm-8.655 0H3.93l2.647-6.105 2.645 6.104zm11.306-8.092H6.57l-3.595 8.174c.046 1.988 1.696 3.562 3.686 3.516 1.923-.047 3.47-1.595 3.516-3.516l-3.168-7.185h13.084l-3.17 7.185c.067 1.988 1.732 3.546 3.723 3.48 1.893-.064 3.415-1.585 3.48-3.48l-3.598-8.174z" fill="#fff"/><path fill-rule="evenodd" clip-rule="evenodd" d="M4.594 58.658h4.484l-2.242-5.17-2.242 5.17zm4.893.53H4.194c-.145.003-.265-.113-.267-.26 0-.037.007-.075.022-.11l2.648-6.103c.057-.135.215-.196.35-.14.062.03.112.078.14.14l2.647 6.103c.06.135-.003.29-.14.35-.032.014-.07.02-.106.02h-.003zm9.06-.53h4.485l-2.243-5.17-2.244 5.17zm4.893.53h-5.295c-.146.002-.265-.116-.267-.263 0-.036.008-.072.02-.107l2.653-6.103c.057-.135.213-.196.348-.14.063.027.113.077.14.14l2.65 6.103c.056.135-.006.29-.14.35-.034.013-.068.02-.105.02h-.003zm-5.98-.13c.09 1.842 1.655 3.26 3.495 3.17 1.715-.083 3.087-1.454 3.17-3.17L20.623 51.1H7.013L3.508 59.06c.09 1.842 1.654 3.26 3.495 3.17 1.715-.083 3.086-1.454 3.17-3.17L7.03 51.93c-.036-.082-.027-.177.02-.254.05-.075.136-.12.226-.12H20.36c.09 0 .174.046.223.12.05.077.055.172.018.254l-3.14 7.128zm3.33 3.72c-2.098.01-3.818-1.666-3.863-3.764 0-.04.005-.08.02-.113l3.005-6.812H7.682l3.005 6.813c.016.035.024.074.022.114-.062 2.135-1.84 3.818-3.975 3.758-2.054-.055-3.704-1.706-3.76-3.758-.002-.04.006-.08.02-.113l3.598-8.173c.042-.097.137-.16.242-.16H20.79c.105 0 .202.063.245.16l3.596 8.174c.017.035.024.074.023.114-.048 2.1-1.77 3.772-3.867 3.764h.004z" fill="#101010"/><path fill-rule="evenodd" clip-rule="evenodd" d="M299.467 63.122v-.216c.485 0 .805-.058.957-.176.153-.117.23-.435.23-.955V45.647c0-.27-.02-.468-.054-.593-.037-.127-.103-.203-.203-.23-.1-.026-.225-.026-.377 0-.153.027-.346.04-.58.04V44.3l.647-.19c.307-.09.625-.176.958-.256.332-.08.647-.144.944-.19.295-.044.498-.05.606-.013v18.206c0 .393.116.668.35.822.234.153.557.228.97.228v.216h-4.45zM316.893 53.285c-.414-.836-.928-1.474-1.537-1.916-.612-.44-1.268-.68-1.97-.715-.7-.036-1.348.148-1.94.552-.595.405-1.08 1.035-1.457 1.888-.378.855-.56 1.94-.54 3.25.017 1.222.237 2.25.66 3.087.422.837.94 1.47 1.55 1.902.612.432 1.267.66 1.97.69.7.025 1.348-.17 1.94-.582.595-.414 1.085-1.043 1.47-1.888.387-.844.562-1.914.527-3.21-.036-1.203-.26-2.224-.674-3.06zm1.847 6.796c-.603.997-1.363 1.744-2.28 2.238-.916.494-1.9.745-2.953.755-1.052.01-2.035-.233-2.952-.728-.916-.494-1.677-1.24-2.28-2.238-.6-.997-.902-2.252-.902-3.762 0-1.512.3-2.768.903-3.776.602-1.007 1.363-1.757 2.28-2.252.916-.494 1.896-.742 2.94-.742 1.06 0 2.048.252 2.965.755.917.505 1.677 1.26 2.28 2.267.602 1.006.903 2.256.903 3.748 0 1.493-.3 2.737-.903 3.736zM330.633 52.558c-.288-.603-.642-1.07-1.066-1.403-.42-.332-.885-.526-1.388-.58-.505-.055-.968.022-1.39.23-.423.206-.777.538-1.065.996-.288.46-.43 1.04-.43 1.74 0 .92.142 1.683.43 2.294.288.612.642 1.08 1.065 1.402.422.323.885.512 1.39.566.502.054.966-.027 1.387-.243.424-.216.778-.554 1.066-1.012.288-.458.43-1.038.43-1.74 0-.898-.142-1.65-.43-2.25zm-5.218 10.45c-.243.16-.463.345-.66.552-.2.207-.365.43-.5.673-.134.244-.203.5-.203.77 0 .466.163.836.487 1.106.32.268.713.47 1.17.605.46.135.927.225 1.403.27.477.045.877.067 1.2.067.576 0 1.15-.05 1.726-.148.574-.1 1.123-.256 1.645-.473.414-.177.768-.412 1.065-.7.296-.286.445-.674.445-1.16 0-.394-.166-.7-.5-.916-.332-.215-.727-.377-1.185-.486-.46-.107-.922-.178-1.39-.215-.468-.036-.827-.054-1.078-.054-.503-.02-.998-.05-1.484-.095-.485-.045-.97-.112-1.455-.203-.216.108-.446.243-.688.405zm7.24-11.84l-.405.163c.27.395.454.86.553 1.388.1.53.15 1.03.15 1.498 0 .844-.18 1.59-.54 2.24-.36.645-.836 1.166-1.43 1.562-.593.396-1.267.652-2.023.768-.754.117-1.52.06-2.29-.175-.146.04-.307.11-.487.217-.18.108-.346.234-.5.378-.15.145-.28.3-.39.472-.107.172-.162.337-.162.5 0 .304.23.515.69.632.457.116 1.028.197 1.712.242.683.045 1.42.093 2.212.15.79.052 1.528.182 2.21.39.683.206 1.254.52 1.713.944.458.42.687 1.02.687 1.792 0 .864-.3 1.595-.903 2.198-.602.602-1.348 1.07-2.238 1.402-.888.334-1.86.53-2.912.594-1.052.063-2.023-.005-2.913-.203-.89-.198-1.635-.53-2.237-.997-.603-.47-.904-1.062-.904-1.78 0-.378.085-.73.257-1.053.17-.323.38-.616.632-.877.252-.26.537-.495.85-.7.315-.207.626-.4.93-.58-.664-.324-1.078-.665-1.24-1.026-.162-.358-.166-.722-.013-1.09.152-.368.413-.73.782-1.08.368-.35.75-.68 1.146-.984-.665-.36-1.182-.823-1.55-1.39-.368-.565-.598-1.163-.688-1.792-.09-.628-.05-1.267.12-1.914.172-.647.46-1.227.864-1.74.404-.512.93-.93 1.577-1.254.648-.323 1.393-.486 2.24-.486.502 0 .997.06 1.483.177.484.117.934.32 1.347.606.27-.018.598-.04.985-.068l1.092-.08c.34-.028.755-.07 1.24-.122l.135.35-1.78.73zM338.54 48.874c.468-.593.87-1.1 1.2-1.523.333-.422.693-.853 1.08-1.294.387-.44.742-.796 1.066-1.065.18-.16.38-.27.607-.322.224-.055.435-.064.633-.028.198.038.364.113.5.23.134.117.2.265.2.444 0 .108-.035.203-.107.284-.073.08-.153.148-.243.2-.684.47-1.326.973-1.928 1.513-.604.54-1.22 1.07-1.85 1.59l-1.16-.026zm-.403 14.347v-.215c.486 0 .804-.06.958-.175.15-.117.23-.436.23-.957v-9.735c0-.307-.024-.514-.07-.62-.044-.11-.112-.176-.2-.203-.09-.027-.212-.032-.365-.013-.153.018-.347 0-.58-.054v-.135l2.643-.917.512.026v11.732c0 .395.027.67.082.822.053.154.287.23.7.23v.215h-3.91zM353.02 56.022c-.413.108-.85.234-1.307.378-.458.144-.885.337-1.28.58-.397.243-.72.54-.972.89-.25.35-.377.787-.377 1.307 0 .612.14 1.098.42 1.456.276.36.624.608 1.037.74.413.137.863.168 1.348.097.485-.072.934-.23 1.348-.472.414-.243.76-.563 1.04-.957.277-.395.416-.853.416-1.374V55.59l-1.67.432zm4.774 6.095c-.468.288-.885.498-1.254.633-.37.136-.68.158-.93.068-.252-.09-.45-.296-.593-.62-.145-.324-.225-.8-.243-1.43-.522.647-1.134 1.182-1.835 1.605-.702.422-1.474.634-2.32.634-.503 0-.97-.076-1.402-.23-.432-.152-.81-.376-1.132-.674-.324-.296-.58-.65-.768-1.065-.19-.413-.284-.88-.284-1.402 0-.54.1-1.012.297-1.416.2-.404.46-.755.783-1.053.323-.296.7-.556 1.132-.78.43-.225.882-.436 1.35-.633.772-.343 1.482-.573 2.13-.69.647-.116 1.302-.283 1.967-.498v-1.32c0-.45-.1-.846-.296-1.188-.198-.342-.454-.62-.768-.836-.316-.216-.675-.378-1.08-.486-.404-.107-.804-.16-1.2-.16-.215 0-.45.04-.7.12-.252.08-.504.184-.755.31-.252.126-.495.266-.728.417-.234.154-.44.293-.62.42l-.244-.163c.18-.197.36-.382.54-.553.18-.17.37-.327.567-.472.468-.358.94-.63 1.416-.81.476-.178 1.002-.27 1.578-.27 1.366 0 2.405.344 3.115 1.026.71.686 1.065 1.72 1.065 3.103v6.606c0 .09.005.226.014.404.01.18.03.37.068.567.035.2.09.37.16.513.073.145.172.216.298.216.108 0 .23-.027.364-.082.134-.054.247-.126.337-.215l-.026.404z" fill="#000"/></svg>